<?xml version="1.0" encoding="UTF-8"?>
<!-- Uploaded to: SVG Repo, www.svgrepo.com, Generator: SVG Repo Mixer Tools -->
<svg id="Layer_1" width="800px" height="800px" fill="#9F50FF" version="1.1" viewBox="0 0 512.01 512.01" xml:space="preserve" xmlns="http://www.w3.org/2000/svg">
<g transform="translate(-1)">
	
		
			<path d="m508.29 333.7-15.036-7.526-32.879-49.314c-1.254-1.877-3.209-3.191-5.427-3.627l-41.011-8.209-23.868-15.906c-1.22-1.434-2.526-2.825-3.934-4.181-11.059-10.607-26.94-17.69-43.793-22.417v-48.435c0-7.765-2.364-14.976-6.417-20.975 13.355-19.951 20.096-38.528 22.443-55.356 0.922-1.783 1.143-3.831 0.648-5.879 4.514-54.733-36.267-89.455-36.83-89.916-3.635-3.004-9.003-2.483-11.998 1.118-3.004 3.618-2.509 9.003 1.092 12.015 1.493 1.246 21.803 18.714 28.783 47.932-15.497-13.303-31.761-11.896-32.742-11.785-4.685 0.495-8.09 4.693-7.595 9.378 0.486 4.685 4.463 8.064 9.37 7.603 0.222-0.034 20.267-1.655 32.572 25.899-1.843 14.285-7.339 30.182-18.492 47.428-5.453-3.106-11.674-5.018-18.381-5.018h-95.573c-6.707 0-12.928 1.911-18.381 5.018-11.153-17.246-16.648-33.143-18.492-47.437 12.032-26.931 31.625-25.958 32.666-25.882 4.548 0.435 8.798-2.953 9.276-7.612 0.495-4.685-2.91-8.883-7.595-9.378-0.998-0.094-17.246-1.527-32.742 11.776 6.989-29.21 27.29-46.677 28.783-47.923 3.61-3.004 4.113-8.371 1.118-11.998-2.995-3.618-8.371-4.139-12.023-1.135-0.563 0.461-41.344 35.183-36.83 89.916-0.495 2.048-0.273 4.096 0.648 5.879 2.347 16.828 9.088 35.405 22.443 55.356-4.053 5.999-6.417 13.21-6.417 20.975v48.435c-16.862 4.736-32.742 11.81-43.793 22.417-1.408 1.357-2.714 2.748-3.934 4.181l-23.868 15.906-41.011 8.209c-2.219 0.435-4.173 1.749-5.427 3.627l-32.88 49.315-15.036 7.526c-4.215 2.108-5.931 7.228-3.823 11.443 1.502 2.995 4.514 4.727 7.646 4.719 1.28 0 2.586-0.29 3.806-0.896l17.067-8.533c1.331-0.666 2.458-1.664 3.285-2.901l32.179-48.256 39.194-7.842c1.092-0.222 2.133-0.657 3.063-1.271l3.994-2.662c-0.102 1.348-0.196 2.705-0.196 4.096v6.135l145.1 36.267 145.03-35.149v-7.254c0-1.391-0.094-2.748-0.196-4.096l3.994 2.662c0.93 0.614 1.971 1.05 3.063 1.271l39.194 7.842 32.179 48.256c0.828 1.237 1.954 2.236 3.285 2.901l17.067 8.533c1.22 0.606 2.526 0.896 3.806 0.896 3.132 0 6.144-1.724 7.646-4.719 2.106-4.214 0.391-9.334-3.824-11.442zm-183.02-115.19c-28.39-5.461-55.919-5.461-64.922-5.265-1.596 0.026-2.756 0.06-3.319 0.085-3.891-0.154-35.55-1.109-68.292 5.18v-44.424c0-11.298 9.19-20.489 20.48-20.489h95.573c11.29 0 20.48 9.19 20.48 20.489v44.424z"/>
			<path d="m436.92 433.9 16.026-56.081c0.785-2.765 0.137-5.726-1.732-7.902l-49.143-46.285v-17.22l-136.53 33.092v172.23c48.572-1.382 85.402-14.319 109.26-38.81 27.238-27.981 27.315-60.629 27.273-63.403v-62.788l33.203 30.814-15.812 55.313c-0.657 2.321-0.307 4.821 0.973 6.869l42.667 68.267c1.621 2.586 4.403 4.011 7.245 4.011 1.545 0 3.106-0.418 4.514-1.297 3.994-2.5 5.214-7.765 2.714-11.759l-40.656-65.049z"/>
			<path d="m111.94 323.63-49.143 46.285c-1.869 2.176-2.517 5.137-1.732 7.893l16.026 56.09-40.653 65.05c-2.5 3.994-1.28 9.259 2.714 11.759 1.408 0.879 2.97 1.297 4.514 1.297 2.842 0 5.623-1.425 7.245-4.019l42.667-68.267c1.28-2.039 1.63-4.54 0.973-6.861l-15.812-55.322 33.203-30.805v62.643c-0.034 1.417-0.589 34.927 27.273 63.548 23.859 24.491 60.689 37.427 109.26 38.81v-172.28l-136.53-34.125v18.304z"/>
		
	
</g>
</svg>
