<?xml version='1.0' encoding='iso-8859-1'?>
<!DOCTYPE svg PUBLIC '-//W3C//DTD SVG 1.1//EN' 'http://www.w3.org/Graphics/SVG/1.1/DTD/svg11.dtd'>
<!-- Uploaded to: SVG Repo, www.svgrepo.com, Generator: SVG Repo Mixer Tools -->
<svg fill="#cc9700" height="800px" width="800px" version="1.1" xmlns="http://www.w3.org/2000/svg" viewBox="0 0 237.873 237.873" xmlns:xlink="http://www.w3.org/1999/xlink" enable-background="new 0 0 237.873 237.873">
  <path d="m161.196,127.011c4.143,0 7.5-3.358 7.5-7.5 0-4.142-3.357-7.5-7.5-7.5h-18.353v-16.488h18.353c4.143,0 7.5-3.358 7.5-7.5s-3.357-7.5-7.5-7.5h-18.353v-28.233c0-8.067-4.024-15.208-10.169-19.538l19.948-19.949c2.929-2.929 2.929-7.678-0.001-10.606-2.928-2.93-7.677-2.929-10.606,0l-23.087,23.088-22.873-22.874c-2.93-2.929-7.678-2.929-10.608-1.33227e-15-2.929,2.929-2.929,7.678 0,10.607l19.739,19.739c-6.136,4.33-10.155,11.469-10.155,19.534v28.232h-18.354c-4.142,0-7.5,3.358-7.5,7.5s3.358,7.5 7.5,7.5h18.354v16.488h-18.354c-4.142,0-7.5,3.358-7.5,7.5 0,4.142 3.358,7.5 7.5,7.5h18.354v16.488h-18.354c-4.142,0-7.5,3.358-7.5,7.5 0,4.142 3.358,7.5 7.5,7.5h18.354v16.486h-18.354c-4.142,0-7.5,3.358-7.5,7.5 0,4.142 3.358,7.5 7.5,7.5h18.354v23.988c0,13.178 10.729,23.899 23.915,23.899 13.177,0 23.897-10.721 23.897-23.899v-23.988h18.353c4.143,0 7.5-3.358 7.5-7.5 0-4.142-3.357-7.5-7.5-7.5h-18.353v-16.486h18.353c4.143,0 7.5-3.358 7.5-7.5 0-4.142-3.357-7.5-7.5-7.5h-18.353v-16.488h18.353zm-33.352,86.963c0,4.907-3.991,8.899-8.897,8.899-4.916,0-8.915-3.992-8.915-8.899v-161.684c0-4.907 3.991-8.898 8.898-8.898 4.916,0 8.915,3.992 8.915,8.898v161.684z"/>
</svg>
