<?xml version="1.0" encoding="utf-8"?>

<!DOCTYPE svg PUBLIC "-//W3C//DTD SVG 1.1//EN" "http://www.w3.org/Graphics/SVG/1.1/DTD/svg11.dtd">
<!-- Uploaded to: SVG Repo, www.svgrepo.com, Generator: SVG Repo Mixer Tools -->
<svg version="1.1" id="_x32_" xmlns="http://www.w3.org/2000/svg" xmlns:xlink="http://www.w3.org/1999/xlink" 
	 viewBox="0 0 512 512"  xml:space="preserve">
<style type="text/css">
	.st0{fill:#ff3300;}
</style>
<g>
	<path class="st0" d="M4.302,81.551c-4.918,5.982-5.69,14.361-1.953,21.142l20.717,37.6c10.092,18.32,29.46,29.592,50.389,29.344
		l149.464-1.81v-28.901L24.673,75.559C17.288,73.198,9.228,75.568,4.302,81.551z"/>
	<path class="st0" d="M18.734,255.557c-0.222,6.568,3.667,12.586,9.746,15.098l37.777,15.578
		c30.347,12.506,65.22,5.929,88.928-16.785l67.734-63.819v-27.79L29.484,241.142C23.243,243.236,18.957,248.971,18.734,255.557z"/>
	<path class="st0" d="M507.698,81.551c-4.926-5.982-12.986-8.353-20.37-5.992l-198.246,63.366v28.901l149.464,1.81
		c20.93,0.248,40.297-11.024,50.398-29.344l20.708-37.6C513.388,95.911,512.615,87.533,507.698,81.551z"/>
	<path class="st0" d="M482.517,241.142l-193.436-63.304v27.79l67.733,63.819c23.708,22.714,58.582,29.291,88.929,16.785
		l37.777-15.578c6.08-2.511,9.967-8.529,9.746-15.098C493.044,248.971,488.756,243.236,482.517,241.142z"/>
	<path class="st0" d="M299.919,98.895c0-13.758-11.149-24.907-24.907-24.907c-7.668,0-14.441,3.542-19.013,8.992
		c-4.571-5.45-11.343-8.992-19.012-8.992c-13.757,0-24.906,11.148-24.906,24.907c0,11.946,8.415,21.906,19.642,24.32v61.955h48.552
		v-61.955C291.504,120.8,299.919,110.841,299.919,98.895z"/>
	<rect x="231.724" y="296.36" class="st0" width="48.552" height="35.584"/>
	<rect x="231.724" y="345.276" class="st0" width="48.552" height="35.593"/>
	<rect x="231.724" y="247.443" class="st0" width="48.552" height="35.576"/>
	<path class="st0" d="M231.724,413.727c0,13.412,10.864,24.285,24.276,24.285c13.412,0,24.276-10.873,24.276-24.285V394.2h-48.552
		V413.727z"/>
	<rect x="231.724" y="198.519" class="st0" width="48.552" height="35.576"/>
</g>
</svg>
