<?xml version="1.0" encoding="utf-8"?><!-- Uploaded to: SVG Repo, www.svgrepo.com, Generator: SVG Repo Mixer Tools -->
<svg version="1.1" id="Uploaded to svgrepo.com" xmlns="http://www.w3.org/2000/svg" xmlns:xlink="http://www.w3.org/1999/xlink" 
	 width="800px" height="800px" viewBox="0 0 32 32" xml:space="preserve">
<style type="text/css">
	.puchipuchi_een{fill:#336600;}
</style>
<path class="puchipuchi_een" d="M31,22c0-0.553-0.448-1-1-1h-0.596c-0.556-2.054-1.39-3.956-2.34-5.65l0.35-0.35H29
	c0.552,0,1-0.447,1-1s-0.448-1-1-1h-2c-0.265,0-0.52,0.105-0.707,0.293l-0.298,0.298c-0.732-1.121-1.482-2.134-2.182-2.99
	l1.894-1.894c0.076-0.076,0.139-0.164,0.188-0.26l1-2c0.247-0.494,0.047-1.095-0.447-1.342c-0.495-0.245-1.095-0.046-1.342,0.447
	l-0.927,1.854l-1.682,1.682c-0.617-0.67-1.118-1.167-1.444-1.475c0.702-0.837,0.788-2.195,0.112-3.364
	c-0.291-0.503-0.695-0.901-1.145-1.179C19.117,1.82,17.662,1,16,1s-3.117,0.82-4.02,2.071c-0.45,0.279-0.855,0.677-1.145,1.179
	c-0.676,1.17-0.589,2.527,0.112,3.364c-0.326,0.308-0.827,0.805-1.444,1.475L7.822,7.407L6.895,5.553
	C6.647,5.06,6.048,4.86,5.553,5.105C5.059,5.353,4.858,5.953,5.105,6.447l1,2c0.048,0.096,0.111,0.184,0.188,0.26l1.894,1.894
	c-0.701,0.855-1.45,1.868-2.182,2.99l-0.298-0.298C5.52,13.105,5.265,13,5,13H3c-0.552,0-1,0.447-1,1s0.448,1,1,1h1.586l0.35,0.35
	c-0.95,1.694-1.783,3.596-2.34,5.65H2c-0.552,0-1,0.447-1,1s0.448,1,1,1h0.165c-0.162,0.977-0.272,1.973-0.272,3
	c0,4.361,2.858,4.7,3.734,4.7c1.565,0,3.436-0.841,5.231-2.262C12.061,29.461,13.719,30,16,30s3.939-0.539,5.142-1.562
	c1.795,1.421,3.666,2.262,5.231,2.262c0.876,0,3.734-0.339,3.734-4.7c0-1.027-0.11-2.023-0.272-3H30C30.552,23,31,22.553,31,22z
	 M12.112,24.375C10.075,26.922,7.408,28.7,5.627,28.7c-0.429,0-1.734,0-1.734-2.7c0-8.341,6.81-15.376,8.429-16.931
	c0.542,0.128,1.463,0.458,1.733,1.249C15.313,14.064,14.259,21.685,12.112,24.375z M14.299,6.25c-0.533,0.922-1.6,1.385-2.299,0.982
	c-0.716-0.414-0.851-1.527-0.299-2.482c0.398-0.689,1.069-1.136,1.709-1.136c0.215,0,0.414,0.052,0.59,0.153
	C14.716,4.182,14.851,5.295,14.299,6.25z M18,3.768c0.176-0.102,0.375-0.153,0.59-0.153c0.64,0,1.311,0.446,1.709,1.136
	C20.851,5.705,20.716,6.818,20,7.232c-0.699,0.402-1.766-0.061-2.299-0.982C17.149,5.295,17.284,4.182,18,3.768z M26.373,28.7
	c-1.781,0-4.448-1.778-6.485-4.325c-2.147-2.69-3.201-10.311-1.943-14.057c0.27-0.791,1.192-1.121,1.733-1.249
	c1.619,1.555,8.429,8.59,8.429,16.931C28.107,28.7,26.802,28.7,26.373,28.7z"/>
</svg>
