<?xml version="1.0" encoding="UTF-8"?>
<!-- Uploaded to: SVG Repo, www.svgrepo.com, Generator: SVG Repo Mixer Tools -->
<svg id="Layer_1" width="800px" height="800px" fill="#009F00" version="1.1" viewBox="0 0 511.99 511.99" xml:space="preserve" xmlns="http://www.w3.org/2000/svg">

	
		<path d="m445.41 264.7-2.833-0.563c-25.916-5.197-52.864 0.213-74.735 14.831l-60.646-60.638v-30.601c0-6.938-0.205-13.5-0.546-19.806l72.286-32.128c2.722-1.212 4.617-3.746 5.001-6.707 0.375-2.953-0.811-5.897-3.14-7.748l-35.217-28.186 27.392-27.392c3.328-3.328 3.328-8.73 0-12.066-3.337-3.328-8.738-3.328-12.075 0l-34.133 34.133c-1.715 1.724-2.62 4.087-2.483 6.511s1.297 4.668 3.183 6.187l31.718 25.37-54.11 24.055c-3.686-30.49-12.228-51.951-25.66-63.812-2.005-1.766-3.977-3.123-5.905-4.301 1.997-14.626 9.481-42.684 27.921-47.044l23.125-5.282 44.723-12.774c4.531-1.297 7.159-6.016 5.862-10.547-1.297-4.54-6.042-7.134-10.547-5.862l-44.271 12.663-22.75 5.171c-28.885 6.835-37.897 42.496-40.525 58.615-0.367 0-0.759-9e-3 -1.05 0-0.273-9e-3 -0.666 0-1.041 0-2.637-16.12-11.648-51.78-40.593-58.633l-22.229-5.035-44.723-12.782c-4.497-1.28-9.25 1.323-10.547 5.862-1.297 4.531 1.331 9.25 5.862 10.547l45.175 12.894 22.596 5.146c18.509 4.378 26.001 32.444 27.998 47.07-1.929 1.169-3.9 2.526-5.905 4.292-13.431 11.861-21.973 33.323-25.66 63.812l-54.11-24.055 31.71-25.37c1.894-1.519 3.055-3.763 3.191-6.187s-0.768-4.787-2.483-6.511l-34.133-34.133c-3.337-3.328-8.738-3.328-12.075 0-3.328 3.337-3.328 8.738 0 12.066l27.392 27.392-35.226 28.186c-2.321 1.852-3.507 4.796-3.132 7.748 0.384 2.961 2.278 5.495 5.001 6.707l72.286 32.128c-0.341 6.306-0.555 12.868-0.555 19.806v30.601l-60.638 60.638c-21.871-14.618-48.811-20.011-74.735-14.831l-2.833 0.563c-4.617 0.922-7.612 5.419-6.69 10.044 0.913 4.608 5.359 7.603 10.044 6.69l2.833-0.572c22.912-4.574 46.814 0.836 65.536 14.874l1.638 1.22c1.527 1.152 3.328 1.707 5.111 1.707 2.193 0 4.386-0.845 6.042-2.5l53.692-53.7v1.613c0 5.291 0.247 10.556 0.503 15.812-5.299 4.343-15.215 14.37-23.177 33.417-13.295 31.821-11.426 68.42 5.146 100.39 14.694 28.373 27 49.306 36.727 62.507l-42.453-12.134c-2.33-0.674-4.847-0.307-6.904 0.99-2.057 1.306-3.456 3.413-3.857 5.811l-8.533 51.2c-0.777 4.651 2.364 9.045 7.014 9.822 0.478 0.077 0.947 0.111 1.408 0.111 4.105 0 7.723-2.953 8.414-7.125l6.963-41.779 44.348 12.681v36.224h51.2v-36.224l44.356-12.681 6.963 41.779c0.691 4.173 4.309 7.125 8.414 7.125 0.461 0 0.93-0.034 1.408-0.111 4.642-0.777 7.791-5.171 7.014-9.822l-8.533-51.2c-0.401-2.398-1.801-4.506-3.857-5.811-2.057-1.297-4.574-1.664-6.904-0.99l-42.462 12.134c9.737-13.201 22.042-34.133 36.736-62.507 16.572-31.966 18.44-68.565 5.146-100.39-7.962-19.046-17.886-29.073-23.177-33.417 0.256-5.257 0.495-10.522 0.495-15.812v-1.613l53.7 53.7c1.655 1.655 3.849 2.5 6.033 2.5 1.792 0 3.593-0.555 5.12-1.707l1.63-1.22c18.731-14.037 42.615-19.439 65.544-14.874l2.833 0.572c4.591 0.905 9.122-2.074 10.044-6.69 0.925-4.625-2.07-9.122-6.686-10.044zm-215.02 170.56c-7.919-12.314-17.391-28.979-27.981-49.425-14.234-27.469-15.889-58.803-4.54-85.956 2.987-7.134 6.263-12.595 9.301-16.811 1.724 14.515 4.352 28.851 7.987 42.871 6.955 26.701 15.232 67.328 15.232 109.25v0.069zm83.729-135.38c11.349 27.153 9.694 58.487-4.54 85.956-10.59 20.446-20.062 37.112-27.989 49.425v-0.068c0-41.924 8.286-82.551 15.24-109.26 3.635-14.02 6.263-28.348 7.987-42.863 3.039 4.216 6.316 9.677 9.302 16.811z"/>
	

</svg>
