<?xml version="1.0" encoding="UTF-8"?>
<!-- Uploaded to: SVG Repo, www.svgrepo.com, Generator: SVG Repo Mixer Tools -->
<!DOCTYPE svg  PUBLIC '-//W3C//DTD SVG 1.1//EN'  'http://www.w3.org/Graphics/SVG/1.1/DTD/svg11.dtd'>
<svg id="Capa_1" width="800px" height="800px" fill="#CC0000" version="1.1" viewBox="0 0 492.24 492.24" xml:space="preserve" xmlns="http://www.w3.org/2000/svg">
<path d="m454.61 281.5h-33.05c-3.818-30.102-14.41-57.875-30.166-81.653l28.955-22.669c10.771-8.431 12.665-23.998 4.233-34.768-8.439-10.771-23.989-12.672-34.77-4.233l-31.107 24.353c-13.376-11.622-28.342-21.243-44.588-28.366v-30.456c0-15.965-5.734-30.449-14.952-42.045l28.801-34.58c5.839-7.005 4.886-17.419-2.118-23.257-7.006-5.844-17.422-4.877-23.259 2.121l-29.5 35.42c-8.254-3.566-17.332-5.585-26.896-5.585-9.606 0-18.718 2.046-27.001 5.643l-29.55-35.478c-5.828-7.013-16.253-7.957-23.258-2.121-7.004 5.838-7.955 16.252-2.119 23.257l28.882 34.676c-9.17 11.578-14.872 26.024-14.872 41.94v30.393c-16.343 7.146-31.392 16.823-44.833 28.517l-31.024-24.288c-10.77-8.431-26.336-6.553-34.768 4.233-8.433 10.769-6.537 26.336 4.232 34.768l28.894 22.621c-15.746 23.796-26.327 51.585-30.126 81.702h-33.027c-13.68 0-24.765 11.085-24.765 24.764 0 13.681 11.085 24.765 24.765 24.765h33.031c3.796 30.076 14.352 57.83 30.061 81.602l-27.883 21.83c-9.555 7.48-13.364 20.865-7.708 31.601 4.627 8.782 13.283 13.408 22.043 13.408 5.336 0 10.722-1.717 15.252-5.265l30.936-24.218c26.678 23.242 59.811 38.555 96.257 42.107v-325.19c0-9.118 7.392-16.51 16.509-16.51 9.118 0 16.51 7.392 16.51 16.51v325.19c36.404-3.549 69.502-18.831 96.163-42.029l31.02 24.285c4.53 3.548 9.907 5.265 15.254 5.265 8.759 0 17.417-4.626 22.043-13.407 5.656-10.736 1.845-24.122-7.71-31.603l-27.943-21.878c15.77-23.832 26.358-51.672 30.143-81.845h33.011c13.683 0 24.765-11.084 24.765-24.764-2e-3 -13.679-11.084-24.763-24.767-24.763zm-324.06-9.376c18.928 0 34.276 15.35 34.276 34.294 0 18.928-15.349 34.276-34.276 34.276-18.93 0-34.278-15.348-34.278-34.276-1e-3 -18.944 15.348-34.294 34.278-34.294zm46.634 160.04c-15.026 0-27.207-12.181-27.207-27.208 0-15.033 12.181-27.222 27.207-27.222s27.207 12.188 27.207 27.222c0 15.027-12.18 27.208-27.207 27.208zm0-197.08c-15.026 0-27.207-12.189-27.207-27.216 0-15.034 12.181-27.222 27.207-27.222s27.207 12.189 27.207 27.222c0 15.028-12.18 27.216-27.207 27.216zm165.07-27.216c0 15.028-12.182 27.216-27.208 27.216-15.042 0-27.223-12.189-27.223-27.216 0-15.034 12.181-27.222 27.223-27.222 15.026 0 27.208 12.188 27.208 27.222zm-27.208 224.3c-15.042 0-27.223-12.181-27.223-27.208 0-15.033 12.181-27.222 27.223-27.222 15.026 0 27.208 12.188 27.208 27.222 0 15.027-12.182 27.208-27.208 27.208zm46.634-91.473c-18.943 0-34.293-15.348-34.293-34.276 0-18.944 15.35-34.294 34.293-34.294 18.928 0 34.277 15.35 34.277 34.294 1e-3 18.929-15.349 34.276-34.277 34.276z"/>
</svg>
