<?xml version="1.0" encoding="UTF-8"?>
<!DOCTYPE svg  PUBLIC '-//W3C//DTD SVG 1.1//EN'  'http://www.w3.org/Graphics/SVG/1.1/DTD/svg11.dtd'>
<!-- Uploaded to: SVG Repo, www.svgrepo.com, Generator: SVG Repo Mixer Tools -->
<svg id="_x32_" width="800px" height="800px" version="1.1" viewBox="0 0 512 512" xml:space="preserve" xmlns="http://www.w3.org/2000/svg">
<style type="text/css">
	.st0{fill:#000000;}
</style>

	<path class="st0" d="m253.09 289.26h-14.18s-14.008 32.878-14.008 85.025 7.564 112.96 28.188 112.96c20.62 0 28.187-60.814 28.187-112.96s-14.011-85.025-14.011-85.025h-14.176z"/>
	<path class="st0" d="m237.91 171.04c6.082 0 11.52-2.727 15.186-7.018 3.661 4.29 9.099 7.018 15.182 7.018 11.033 0 19.98-8.942 19.98-19.976 0-11.033-8.946-19.975-19.98-19.975-2.393 0-4.68 0.44-6.805 1.218v-99.17c0-4.637-3.752-8.385-8.376-8.385-4.629 0-8.381 3.748-8.381 8.385v99.17c-2.126-0.778-4.409-1.218-6.805-1.218-11.033 0-19.976 8.942-19.976 19.975-1e-3 11.034 8.942 19.976 19.975 19.976z"/>
	<path class="st0" d="m505.1 120.22c-2.326-3.049-5.233-5.65-8.604-7.623-3.364-1.972-7.175-3.316-11.246-3.984l0.016 8e-3c-1.76-0.292-3.536-0.409-5.359-0.409-7.088 0.023-14.978 1.76-23.858 4.55-15.48 4.904-33.884 13.226-53.098 23.009-28.784 14.671-59.226 32.627-82.852 47.133-11.811 7.253-21.904 13.642-29.205 18.318-2.302 1.478-4.286 2.75-6 3.858-0.157-1.619-0.361-3.151-0.616-4.589l60.107-46.529c1.1-0.848 1.918-1.941 2.436-3.229l20.054-49.892 31.542-8.7c4.118-1.139 6.538-5.398 5.399-9.516-1.14-4.11-5.399-6.53-9.516-5.39l-35.228 9.712c-2.318 0.636-4.22 2.342-5.116 4.574l-20.698 51.494-55.106 42.662c-5.662-6.805-14.368-8.683-25.059-8.683-10.695 0-19.402 1.878-25.06 8.683l-55.105-42.662-20.699-51.494c-0.896-2.232-2.805-3.937-5.119-4.574l-35.232-9.712c-4.118-1.14-8.374 1.273-9.509 5.39-1.136 4.118 1.281 8.377 5.398 9.516l31.538 8.7 20.05 49.892c0.519 1.288 1.344 2.381 2.444 3.229l60.103 46.529c-0.063 0.369-0.13 0.738-0.185 1.123-4.97-3.182-11.288-7.198-18.62-11.772-23.359-14.585-56.854-34.772-88.896-51.424-16.031-8.322-31.692-15.764-45.676-21.202-6.994-2.711-13.575-4.927-19.646-6.499-6.078-1.564-11.626-2.498-16.789-2.506-1.819 0-3.598 0.117-5.359 0.409l0.012-8e-3c-4.075 0.668-7.878 2.012-11.242 3.984-5.06 2.955-9.06 7.34-11.65 12.494-2.601 5.164-3.851 11.058-3.851 17.282 0.016 11.135 3.925 23.386 11.819 35.66 7.909 12.275 19.861 24.58 36.332 35.724 11.12 7.504 23.838 13.272 37.244 17.776 20.114 6.75 41.802 10.656 62.099 12.926 20.298 2.255 39.197 2.852 53.644 2.86 4.106 0 7.846-0.055 11.162-0.126l-66.727 49.938c-1.293 0.966-2.244 2.303-2.735 3.843l-24.796 77.898-28.914 14.726c-3.807 1.941-5.32 6.601-3.379 10.404 1.937 3.803 6.593 5.32 10.4 3.379l31.79-16.196c1.844-0.943 3.23-2.578 3.858-4.542l25.025-78.613 68.986-51.628c0.212 0.644 0.436 1.281 0.669 1.902l-44.03 65.82c-0.861 1.289-1.308 2.75-1.308 4.299v81.23l-28.07 30.985c-2.868 3.167-2.629 8.055 0.538 10.923 3.163 2.869 8.055 2.633 10.923-0.534l30.073-33.193c1.285-1.422 2.004-3.277 2.004-5.194v-81.866l39.173-58.56c1.713 1.344 3.611 2.413 5.709 3.175h23.201c2.098-0.762 3.996-1.832 5.709-3.175l39.177 58.56v81.866c0 1.918 0.715 3.772 2 5.194l30.073 33.193c2.868 3.167 7.764 3.403 10.923 0.534 3.166-2.86 3.41-7.756 0.534-10.915l-28.066-30.993v-81.23c0-1.548-0.448-3.01-1.304-4.299l-44.033-65.82c0.232-0.62 0.455-1.257 0.672-1.902l68.984 51.628 25.028 78.613c0.628 1.965 2.012 3.599 3.85 4.542l31.794 16.196c3.803 1.941 8.463 0.424 10.404-3.379 1.933-3.804 0.424-8.464-3.38-10.404l-28.918-14.726-24.8-77.898c-0.488-1.54-1.431-2.877-2.735-3.843l-66.956-50.111c4.518 0.157 10.353 0.298 17.214 0.298 19.264-8e-3 46.434-1.068 74.291-5.72 13.932-2.334 28.038-5.564 41.452-10.066 13.406-4.503 26.128-10.271 37.24-17.776 16.471-11.143 28.431-23.449 36.336-35.724 7.89-12.274 11.803-24.525 11.819-35.66 9e-3 -8.282-2.23-16.038-6.898-22.151zm-284.42 111.23c-4.593 0.196-11.308 0.392-19.54 0.392-18.686 0-45.122-1.044-71.741-5.5-13.308-2.224-26.659-5.304-39.078-9.477-12.42-4.157-23.901-9.43-33.503-15.929-14.966-10.113-25.39-21.02-31.995-31.275-6.62-10.263-9.37-19.865-9.355-27.292 8e-3 -5.564 1.473-9.815 3.733-12.778 1.14-1.485 2.487-2.688 4.126-3.654 1.626-0.951 3.556-1.666 5.885-2.058h0.048c0.754-0.126 1.709-0.204 2.836-0.204 4.405-0.031 11.19 1.28 19.194 3.826 14.058 4.44 31.975 12.472 50.736 22.042 28.176 14.365 58.374 32.156 81.784 46.536 11.709 7.198 21.724 13.531 28.961 18.168 3.368 2.153 6.102 3.913 8.161 5.257 0.032 1.682 0.075 3.356 0.138 5.006l-0.39 6.94zm266.51-61.789c-6.617 10.255-17.036 21.162-31.999 31.275-9.602 6.499-21.083 11.772-33.507 15.929-18.624 6.263-39.346 10.043-58.889 12.212-19.535 2.177-37.912 2.766-51.927 2.766-8.047 0-14.66-0.188-19.244-0.384-0.106 0-0.193 0-0.299-8e-3l-0.652-11.685c4.915-3.191 14.263-9.218 26.423-16.809 23.146-14.451 56.402-34.49 87.834-50.812 15.709-8.164 30.97-15.394 44.148-20.51 6.584-2.554 12.643-4.581 17.908-5.941 5.258-1.367 9.736-2.035 12.927-2.019 1.131 0 2.082 0.078 2.836 0.204h8e-3c2.35 0.385 4.29 1.1 5.925 2.058 2.444 1.446 4.29 3.418 5.658 6.122 1.367 2.687 2.2 6.145 2.2 10.31 0.016 7.427-2.734 17.029-9.35 27.292z"/>

</svg>
