<?xml version="1.0" encoding="iso-8859-1"?>
<!-- Uploaded to: SVG Repo, www.svgrepo.com, Generator: SVG Repo Mixer Tools -->
<!DOCTYPE svg PUBLIC "-//W3C//DTD SVG 1.1//EN" "http://www.w3.org/Graphics/SVG/1.1/DTD/svg11.dtd">
<svg fill="#660099" version="1.1" id="Capa_1" xmlns="http://www.w3.org/2000/svg" xmlns:xlink="http://www.w3.org/1999/xlink" 
	 width="800px" height="800px" viewBox="0 0 32 32" xml:space="preserve">
<g>
	<path d="M17.479,15.826c6.018-7.785,12.054,2.011,12.994,1.41c0.938-0.602-0.15-8.914-7.41-8.764
		c-7.257,0.15-9.364,8.764-9.364,8.764l-2.482,0.302c0,0,0.79-2.935,1.467-3.01c-0.802-0.526-1.01-0.276-1.467-0.113
		c-0.765,0.238-2.069,3.123-2.069,3.123H7.681c0,0,0.289-1.832,1.166-2.521c-0.197-0.386-0.724-0.387-1.166-0.302
		c-1.091,0.238-1.617,2.797-2.407,3.237c-1.642,1.188-4.877-3.773,1.204-5.005c7.008-1.454,11.622-3.735,7.672-8.725
		C10.751-0.065,3.63,5.625,5.047,9.111c0.489,0.401,5.955-4.338,6.206-1.053c0.301,1.931-7.221,3.034-8.65,4.476
		c-6.87,4.701,2.031,9.439,2.031,9.439s0.809,3.705,2.67,4.363c0.499,0.063,0.837-0.32,1.128-0.414
		c-1.74-1.938-1.523-3.207-1.354-3.311s1.862,0.291,2.068,0.489c0.207,0.197,0.179,2.087,2.069,3.234
		c0.385,0.188,1.279,0.188,1.392,0c-1.082-1.553-0.894-2.567-0.79-2.709c0.104-0.143,2.975-0.1,3.046,0.112
		c0.071,0.212,1.994,6.995,10.681,5.304c8.688-1.692,6.306-9.893,5.691-9.778c-0.614,0.112-1.78,6.056-6.625,6.657
		c-2.745,0.264-5.647-2.767-5.836-3.065c-0.188-0.301,4.646,0.292,4.23-2.588c0.305-0.797,2.745-0.982,2.596-1.474
		c-0.149-0.49-2.803,0.104-2.765-1.063C22.535,13.372,16.875,16.728,17.479,15.826z"/>
</g>
</svg>
