<?xml version="1.0" encoding="UTF-8"?>
<!-- Generator: Adobe Illustrator 16.0.4, SVG Export Plug-In . SVG Version: 6.00 Build 0)  -->
<svg id="Layer_1" enable-background="new 0 0 612 792" version="1.1" fill="#008FBF" viewBox="0 0 612 792" xml:space="preserve" xmlns="http://www.w3.org/2000/svg" xmlns:cc="http://creativecommons.org/ns#" xmlns:dc="http://purl.org/dc/elements/1.1/" xmlns:rdf="http://www.w3.org/1999/02/22-rdf-syntax-ns#">
<path id="path3" d="m263.53 702.3c0.10133-2.1014-0.23147-4.3367 0.3689-6.2836 5.0176-16.253 10.125-32.478 15.379-48.656 2.088-6.4286 4.1142-12.959 7.0893-18.989 2.3373-4.7354 2.3754-8.4325-1.7025-12.609-18.703 6.4191-37.649 12.922-56.597 19.425-0.29383-0.51458-0.58792-1.0282-0.88323-1.5411 1.355-0.94967 2.593-2.174 4.0835-2.8026 16.823-7.1173 33.707-14.095 50.498-21.291 1.2756-0.54542 2.3562-2.3295 2.8574-3.771 1.9328-5.5405 4.0467-11.084 5.1868-16.807 0.72017-3.6034-0.1727-7.5272-0.35065-11.484-8.166 2.3713-10.877 0.14886-11.397-8.4301-0.26126-4.3105-0.56189-8.617-0.91137-13.927-2.0591 2.5344-3.4331 4.2234-5.2848 6.5017-5.6632-7.255-3.3281-15.742-5.1422-24.009-2.1366 2.0623-3.5862 3.4618-6.6067 6.3774-1.4865-6.1286-2.6388-10.881-3.5089-14.468-3.7439-2.9971-7.1021-5.6869-10.218-8.1825-4.3303 2.781-9.093 5.5838-13.498 8.8654-0.98186 0.73181-0.98102 3.1473-0.97119 4.7836 0.0477 8.0092 1.2158 16.149 0.15061 23.996-1.2744 9.3963-4.4853 18.524-6.7103 27.806-1.5694 6.5448-2.8068 13.168-4.3729 19.716-0.54763 2.2872-1.6326 4.447-2.4718 6.6633-0.8776-0.15958-1.7542-0.3189-2.6316-0.47944 0.0452-5.8869-1.4891-12.359 0.42799-17.554 6.0869-16.5 2.827-33.702 5.2052-50.421 0.95897-6.7394 0.97907-13.63 1.1461-20.458 0.10622-4.3528 8.1285-15.631 12.869-17.5-2.427 4.4174-4.8555 8.8364-7.9503 14.467 4.2009 0.70014 8.8035 2.919 10.653 1.5138 6.4631-4.9064 4.814-12.051 3.0781-18.825-2.0972 1.0458-4.0064 1.9971-5.9154 2.9474 0.0764-0.20417 0.0981-0.46651 0.23945-0.60774 8.4611-8.4531 4.5778-18.472 3.6024-28.13-0.12809-1.2684 0.0308-2.5644 0.0686-4.3981-10.626 1.7618-10.98-6.8864-13.724-13.129-0.33572-0.76392-0.0123-1.8202-0.35371-2.5784-1.6762-3.7206-2.5557-9.2434-5.4291-10.664-5.0568-2.4979-15 2.6883-17.544 8.1851-3.2918 7.1155-5.3078 14.848-8.8682 21.807-5.0123 9.7965-11.113 19.031-16.4 28.696-2.8065 5.1304-4.8813 10.66-7.2791 16.012-1.4796 3.3005-2.9468 6.6085-4.4202 9.9127-0.72332-0.0592-1.4466-0.11845-2.1714-0.17601-0.19552-1.9749-1.0548-4.1773-0.47201-5.8847 2.6618-7.7936 5.7867-15.426 8.6282-23.16 1.7497-4.7604 2.9727-9.7343 4.9869-14.369 3.7914-8.725 7.836-17.348 12.057-25.875 3.7251-7.5232 7.3288-15.2 12.008-22.117 2.0052-2.963 6.376-5.0219 10.069-6.0149 11.203-3.0101 11.756-3.335 10.983-14.533-0.17677-2.5703-0.47595-5.132-0.70857-7.6987-10.597-1.6664-11.283-10.896-11.493-21.356-0.0389-1.9526 0.17274-3.9095 0.11047-5.8601-0.0257-0.80819-0.46516-1.6061-0.87335-2.9071-11.29 6.5409-19.4 15.197-24.746 26.859-3.4228 7.4655-8.0978 14.052-16.041 18.199-9.5798 5.001-17.371 12.325-21.656 22.703-0.31132 0.75619-0.98049 1.4724-1.6654 1.9421-1.4231 0.97594-2.9688 1.772-4.4634 2.6439-0.12395-1.6006-0.93176-3.6164-0.25535-4.7344 3.8723-6.3957 7.7558-12.837 12.27-18.781 11.039-14.534 22.424-28.804 33.677-43.174 0.26477-0.33903 0.91919-0.62541 0.8991-0.90203-0.93793-13.473 11.23-12.53 18.51-17.047 2.2662-1.4064 4.4994-3.4894 5.7148-5.8036 1.3831-2.6348 1.6337-5.8692 2.3347-8.8524 0.97617-4.157 0.65226-7.5266-3.2312-10.648-2.6705-2.1463-3.9726-5.9955-5.6722-8.7399-4.5186-0.60821-8.9904-1.4255-13.496-1.7154-1.8782-0.11916-4.1169 0.43117-5.6985 1.4464-10.581 6.7918-21.264 13.47-31.425 20.851-5.3864 3.9132-10.231 8.8039-14.51 13.932-3.4076 4.0821-5.4837 9.253-8.3554 13.815-1.2975 2.0604-3.0897 3.8112-4.656 5.7043-0.78486-0.30865-1.5702-0.61537-2.3548-0.92499 0.80954-3.4656 0.8858-7.3357 2.548-10.328 11.755-21.147 28.457-37.29 50.059-48.322 3.4614-1.7674 6.7379-3.8958 10.1-5.8584-0.70133 0.99851-1.1984 2.2816-2.1365 2.9506-7.8794 5.6253-15.9 11.054-23.734 16.74-2.1681 1.5735-3.8521 3.8129-5.7597 5.7471 0.66748 0.75446 1.335 1.5089 2.0027 2.2624 10.039-7.5873 20.074-15.18 30.121-22.756 2.675-2.0164 2.8346-3.659-0.61888-4.8691 0.60383-2.2535 1.2079-4.508 1.8231-6.804 3.2067 0.61283 5.7259 1.1253 8.2558 1.5744 8.7496 1.5514 8.5828 1.5016 10.679-6.9063 1.5914-6.3795 3.5556-12.675 5.5948-18.929 1.3297-4.0778 0.62967-6.1982-3.8449-7.89-5.6251-2.1274-10.629-5.8513-16.154-8.3195-2.0927-0.93344-5.3814-1.2131-7.287-0.20603-9.6251 5.0851-18.977 10.686-28.418 16.12-8.8436 5.0895-15.809 11.988-20.808 20.962-0.89291 1.6015-3.1321 2.455-4.7484 3.6535-0.1356-2.2063-1.2369-5.1051-0.23855-6.4971 4.135-5.7611 8.4816-11.501 13.542-16.436 7.325-7.1456 14.934-14.135 23.173-20.167 7.2446-5.3037 15.375-9.4868 23.437-13.521 2.1351-1.0678 5.5271-0.0647 8.2174 0.54333 2.5011 0.56457 4.8362 1.8684 7.7194 3.0395 2.825-7.429 5.4878-14.43 8.0357-21.13-7.8976-2.9268-15.939-6.0784-24.105-8.8639-4.2892-1.464-8.0539-0.75937-12.105 2.288-7.9848 6.0071-17.481 10.172-24.855 16.77-6.2606 5.6036-10.913 13.259-15.343 20.572-3.3939 5.6035-5.3313 12.088-7.916 18.18-0.81405-0.0877-1.6278-0.17632-2.4414-0.26593 0.0102-2.8588-0.71914-5.9747 0.16558-8.5308 2.9572-8.5365 4.4506-17.688 11.061-24.77 2.5426-2.7237 3.0442-7.2926 5.4585-10.206 2.6255-3.1684 6.1352-5.8308 9.7176-7.9342 8.1984-4.8183 16.674-9.1606 25.036-13.695-8.6066 5.8508-17.241 11.661-25.794 17.586-1.7939 1.2431-3.2895 2.9149-4.9216 4.3887 0.53601 0.63849 1.0701 1.2764 1.6061 1.9149 13.43-6.2572 25.706-14.245 35.929-25.48-2.3256 0.55396-4.65 1.1072-6.9756 1.6612 6.9439-9.6682 8.2427-10.034 18.52-5.4182 5.453 2.4488 10.941 4.822 16.997 7.4852 1.8902-7.0542 3.403-12.7 5.0102-18.698-12.35-3.3837-19.594-13.218-27.656-23.332-5.5719 4.2424-11.174 8.6185-16.897 12.832-4.4665 3.2891-8.5767 6.3806-14.862 7.088-8.4198 0.95017-13.682 8.5429-19.983 13.74-1.1866 0.97822-2.586 1.6996-4.4209 1.9637 1.3262-7.0862 5.7115-11.818 11.138-15.696 11.634-8.3132 23.296-16.588 35.047-24.731 12.909-8.9447 16.931-8.9251 27.323 2.1387 5.169 5.5023 8.8287 12.422 12.198 17.296-0.17272-14.996 10.635-28.014 18.134-42.381 3.6289-6.9516 9.2966-10.605 17.486-10.128 1.937 0.11215 3.9613-1.2918 5.947-1.9989 6.1394-2.466 12.168-5.2745 18.446-7.3151 9.0044-2.9272 18.275-7.6084 27.28-7.2868 10.075 0.3599 19.942 5.6084 29.984 8.4328 3.2629 0.91674 6.7893 0.89262 9.3682 1.2016-3.5707-4.8411-7.4186-8.918-9.9272-13.697-4.803-9.1519-12.927-13.044-22.131-15.414-10.677-2.7501-20.632 1.5251-30.396 4.5768-5.454 1.7045-10.128 5.472-11.845 12.572-1.5475 6.3975-3.7902 13.511-10.718 17.059-7.0417-1.7357-9.2398-7.8282-4.8852-13.705 1.5485-2.0894 3.17-4.1458 4.9503-6.0375 1.5316-1.6281 3.3358-2.9988 4.9116-4.3862-3.1707-5.851-14.292-5.1806-11.238-14.401-14.019-1.633-28.455-3.5486-42.949-4.7872-2.5942-0.22096-6.1427 1.7053-8.0336 3.7588-10.29 11.178-19.935 22.958-30.417 33.941-2.7179 2.8486-7.5949 3.7211-11.571 5.2646-18.689 7.2521-37.4 14.449-56.134 21.581-1.9714 0.75033-4.1568 0.94328-6.2418 1.395-0.4806-0.48595-0.96147-0.97093-1.4423-1.4559 1.3169-1.6421 2.2974-4.0804 4.0034-4.8025 18.487-7.8343 37.249-15.039 55.55-23.274 5.05-2.2714 9.0296-7.1786 13.139-11.239 10.339-10.218 21.023-20.166 30.535-31.12 10.171-11.712 21.82-8.5302 33.964-5.6571 7.8489 1.8567 16.185 5.6712 23.592 4.4155 10.655-1.8057 12.679 6.0973 16.998 11.196 3.7554 4.434 7.0949 6.8228 12.768 4.4804 9.5467-3.9425 19.175-4.8464 29.456-2.4612 2.663 0.61726 7.905-2.4329 9.3123-5.1658 5.6468-10.959 16.824-12.23 26.334-15.008 13.249-3.872 27.196-5.509 40.938-7.4357 3.7369-0.52367 7.9616 0.91064 11.703 2.1969 15.661 5.387 28.902 14.719 41.255 25.4-0.36585 0.62356-0.7339 1.2476-1.1005 1.8699-10.823-7.1892-21.648-14.379-32.471-21.568-0.49497 0.64176-0.99257 1.2818-1.4875 1.9235 5.8813 4.865 11.763 9.7311 17.645 14.597-0.45514 0.62448-0.90905 1.2482-1.3642 1.8727-5.0682-3.6066-10.414-6.8881-15.133-10.904-5.2232-4.4464-9.537-7.0858-17.392-4.4252-13.122 4.4453-27.022 6.5969-40.595 9.704-0.8513 0.19429-2.0024 7.6e-4 -2.5374 0.49824-5.3582 4.9902-10.617 10.088-15.65 14.913 4.1878 2.6616 9.5652 4.531 12.353 8.3104 2.5604 3.4689 2.3324 8.9952 3.2694 13.334 20.019 8.3064 29.247 26.546 37.765 47.433 2.797-3.7581 4.726-6.1856 6.4794-8.7305 7.9939-11.609 12.018-12.737 24.421-6.0866 8.0484 4.3151 15.785 9.2135 23.877 13.442 2.3548 1.2304 5.4349 1.1488 8.2045 1.4954 6.9191 0.86424 14.082 0.35794 19.676 6.1738 1.8256 1.8992 5.3843 2.1333 8.1503 3.1312-0.296 0.92697-0.58833 1.8518-0.88337 2.7791-2.8535-0.55134-5.6887-1.2406-8.5644-1.6281-6.6246-0.893-13.315-2.5345-19.891-2.1971-6.7597 0.34522-12.276-1.2488-17.742-4.8886-5.2563-3.4997-10.758-6.7081-16.452-9.4148-1.473-0.7001-4.7904 0.2983-6.0299 1.6475-5.9409 6.4657-11.46 13.319-17.56 20.544 1.7596 4.1705 4.0204 9.5303 6.6618 15.795 10.592-8.8563 20.827-17.489 36.106-10.837-2.7789 0.83524-4.9512 1.4893-7.1266 2.1435-0.11178 0.66058-0.2233 1.3202-0.33508 1.9808 10.226 4.4803 20.389 9.1228 30.736 13.299 2.0046 0.81043 4.7389-0.19099 7.1366-0.35708-1.3948-1.9888-2.601-4.1558-4.2542-5.8991-1.0296-1.0875-2.7351-1.5342-4.8884-2.6629 8.4316-0.58466 16.453 5.0319 17.381 11.229 0.11471 0.76579 1.2583 1.3776 1.926 2.0617 0.75283-1.1328 1.505-2.2667 2.5653-3.8596 8.5906 4.9035 18.035 8.6754 22.834 18.097-0.40814 0.64226-0.8175 1.2852-1.2259 1.9284-4.4872-2.5875-8.7722-5.6551-13.508-7.6508-7.2611-3.0575-14.869-5.2781-22.263-8.0327-9.7901-3.6492-19.665-7.139-29.197-11.384-3.7319-1.6625-5.9868-2.7016-9.8386 0.22939-4.5983 3.4991-10.33 5.531-15.616 8.1023-11.889 5.7789-12.145 7.6523-2.38 16.274 5.6449-1.9494 11.802-6.3724 16.444-5.1298 6.6079 1.7706 12.102 7.7017 18.071 11.854-0.2768 0.49213-0.5529 0.98548-0.82996 1.4786-3.9584-2.0804-7.9185-4.1623-11.877-6.2437-0.52155 0.52075-1.0421 1.0418-1.564 1.5635 4.3092 5.2108 8.2187 10.831 13.04 15.513 4.6372 4.5005 10.093 8.211 15.469 11.854 1.3143 0.89051 3.7276 0.16022 5.6353 0.17655-0.80777-1.8884-1.1709-4.2074-2.5068-5.5779-3.4944-3.5804-7.4058-6.7518-11.169-10.069-0.8151-0.7174-1.6997-1.353-2.5534-2.0269 0.77304-0.63247 1.5458-1.264 2.3188-1.8965 5.6243 5.2174 11.478 10.213 16.804 15.72 4.7956 4.9602 9.0103 10.481 13.482 15.755 0.48231-0.39359 0.96583-0.78788 1.4494-1.1822-1.1604-1.5036-2.3218-3.0074-4.0587-5.2607 10.735 3.6115 21.251 13.98 24.22 23.561-1.1685-0.15574-2.6344 0.0488-2.9398-0.45333-6.87-11.283-18.978-15.048-29.875-19.981-13.112-5.937-25.603-12.922-34.255-24.176-5.9723-7.7705-10.49-4.2012-15.919-1.461-3.052 1.5416-5.5095 3.4185-5.3049 7.9675 0.20542 4.573-1.8913 9.2145-2.0208 13.851-0.072 2.5906 1.8345 5.2238 2.7964 7.8585 1.0472 2.8688 2.1662 5.7206 3.0071 8.6521 0.98077 3.4142 2.7412 4.1116 6.3182 3.5202 4.0958-0.677 8.4056-0.0585 12.582-4e-3 0.11833 12.49 24.48 35.57 39.372 36.668-4.0334-4.6638-7.0306-8.1328-10.03-11.6 0.42327-0.47462 0.84557-0.94951 1.2701-1.4248 3.9142 3.5863 7.969 7.0342 11.705 10.798 3.3692 3.3947 6.391 7.1352 9.5666 10.723 0.45499-0.39986 0.90999-0.79972 1.3662-1.2003-1.2073-1.2242-2.4153-2.4496-3.9434-3.9989 8.6831-0.48001 24.92 16.316 26.314 27.03-3.7398-3.2248-6.3056-5.9394-9.3378-7.9528-8.4092-5.5806-16.452-12.275-25.67-15.95-14.461-5.7664-25.491-15.797-36.722-25.663-3.347-2.9405-5.7194-4.0896-9.571-2.226-1.7684 0.85441-3.6092 2.118-5.4443 2.1667-4.3257 0.11328-4.6873 2.471-4.7924 5.997-0.26342 8.8959-1.5106 10.564-8.7405 13.522 1.9799 6.8177 3.9647 13.648 6.0091 20.685 10.652-1.0426 21.695-4.3305 30.025 8.507-3.5066-0.4323-5.2013-0.64104-7.2947-0.89966 8.64 11.917 17.004 23.456 25.369 34.995 0.64864-0.40388 1.2985-0.80847 1.9471-1.2124 0.66084-10.92-8.8204-17.155-14.005-27.093 12.657 8.1733 16.154 21.279 23.749 31.711-0.87587 0.27053-1.9082 0.58815-3.6597 1.1282 2.7806 1.6002 5.115 2.9452 7.4497 4.2893 0.15267-0.16408 0.30727-0.32764 0.4609-0.49146-1.0071-1.0867-2.0129-2.174-3.2761-3.5374 8.2734 1.1764 18.413 13.211 21.989 26.088-1.7256-0.83921-3.3808-1.1336-4.1938-2.1217-7.5671-9.1907-16.208-17.023-26.911-22.467-10.685-5.4348-14.527-16.635-20.661-25.717-3.0693-4.5411-5.9129-7.092-11.255-7.073-3.2836 0.0105-6.6404 0.0314-9.839-0.59584-6.0218-1.1798-6.3785 1.4185-5.8707 6.5321 0.61208 6.181 2.4013 14.63-0.74543 18.299-6.4443 7.51-1.4876 16.015-5.0129 23.214-0.36975 0.754 0.31431 2.0223 0.5091 3.0455 0.9199 0.12536 1.6696 0.47636 2.1758 0.26001 6.0753-2.6054 9.9778-1.1042 13.914 4.6733 5.4701 8.0221 12.779 14.768 18.616 22.571 3.3135 4.4295 5.3552 9.8341 7.8016 14.88 4.0607 8.3712 8.1656 16.728 11.907 25.244 2.4954 5.6783 3.6688 11.654 1.8161 17.653-0.66032 0.1616-1.3199 0.32443-1.9812 0.48577-0.76154-1.7093-1.851-3.3502-2.2356-5.1408-2.8254-13.14-8.4624-24.186-19.016-33.349-6.3912-5.5503-10.838-13.751-14.95-21.41-4.6463-8.6586-10.223-13.403-21.029-8.9662-0.92499 5.9597-1.9952 12.863-3.0665 19.767-0.71151 0.19034-1.4208 0.38022-2.1336 0.57126-1.8985-2.2997-3.7977-4.6007-6.4296-7.7874 0.1331 6.1759 1.2144 11.714 0.1764 16.825-2.6574 13.093 2.7889 18.106 15.298 20.772 7.8399 1.67 13.471 7.7557 15.985 17.592 3.8681 15.137 8.1327 30.019 9.9637 45.641 0.72812 6.2194 5.0898 11.93 6.9346 18.127 1.753 5.8832 3.9045 12.107-0.15798 19.023-1.2033-1.3163-2.4264-2.1337-2.9182-3.2697-5.7528-13.276-11.82-26.441-16.878-39.984-2.3153-6.1995-2.8697-13.129-3.6935-19.791-0.63205-5.1097-0.4345-10.321-0.58115-14.754-8.9898-4.2019-17.22-8.048-26.011-12.157-2.6633 7.6328-5.0956 14.601-8.0887 23.182-3.0657-4.8942-4.9614-7.9231-7.5668-12.082 0.19378 5.366 0.85865 9.4761 0.34529 13.432-0.55686 4.2921-2.4393 8.3926-3.3131 12.666-0.63751 3.1172-0.41644 6.3993-0.88086 9.566-0.3418 2.3227-1.1712 4.5758-2.1138 8.0937-3.0945-2.5074-5.3069-4.3-7.9675-6.4561-0.38256 6.5626-0.59315 12.765-1.1915 18.932-0.18615 1.9234-1.4226 3.7444-2.1766 5.6119-1.7466-0.98875-3.4805-1.9979-5.2454-2.9491-0.52645-0.28393-1.1418-0.40222-1.7164-0.59551-2.7992 10.366 0.87843 19.865 3.4862 29.401 0.36698 1.3427 3.2904 2.2669 5.1938 2.8638 15.013 4.7144 30.07 9.2871 45.098 13.96 0.96137 0.29901 1.7803 1.0599 2.4285 2.4583-19.263-1.5495-38.363-3.6028-57.256-11.852 1.1506 7.4092-1.1953 14.344 3.5092 22.141 8.6444 14.319 15.094 29.965 22.439 45.067 2.1993 4.5192 4.5362 8.9883 6.3938 13.647 0.74781 1.8765 0.37296 4.2027 0.51046 6.3246-0.65738 0.17377-1.3162 0.34923-1.9739 0.52397-1.1385-1.9408-2.4056-3.8187-3.3915-5.8346-7.5702-15.465-14.69-31.171-22.771-46.362-4.6253-8.6944-11.554-16.184-16.013-24.942-3.4254-6.7278-4.6114-14.596-6.976-22.571-10.96 7.2327-22.935 8.6322-34.034 0.0739-6.2398 13.667-12.929 26.761-18.268 40.383-7.2307 18.439-13.251 37.35-20.219 55.899-1.3675 3.6391-4.6802 6.5478-7.0948 9.7945-0.0118-0.0177 0.0729 0.0796 0.0729 0.0796z"/><path id="path1" d="m263.53 702.3c0.10133-2.1014-0.23147-4.3367 0.3689-6.2836 5.0176-16.253 10.125-32.478 15.379-48.656 2.088-6.4286 4.1142-12.959 7.0893-18.989 2.3373-4.7354 2.3754-8.4325-1.7025-12.609-18.703 6.4191-37.649 12.922-56.597 19.425-0.29383-0.51458-0.58792-1.0282-0.88323-1.5411 1.355-0.94967 2.593-2.174 4.0835-2.8026 16.823-7.1173 33.707-14.095 50.498-21.291 1.2756-0.54542 2.3562-2.3295 2.8574-3.771 1.9328-5.5405 4.0467-11.084 5.1868-16.807 0.72017-3.6034-0.1727-7.5272-0.35065-11.484-8.166 2.3713-10.877 0.14886-11.397-8.4301-0.26126-4.3105-0.56189-8.617-0.91137-13.927-2.0591 2.5344-3.4331 4.2234-5.2848 6.5017-5.6632-7.255-3.3281-15.742-5.1422-24.009-2.1366 2.0623-3.5862 3.4618-6.6067 6.3774-1.4865-6.1286-2.6388-10.881-3.5089-14.468-3.7439-2.9971-7.1021-5.6869-10.218-8.1825-4.3303 2.781-9.093 5.5838-13.498 8.8654-0.98186 0.73181-0.98102 3.1473-0.97119 4.7836 0.0477 8.0092 1.2158 16.149 0.15061 23.996-1.2744 9.3963-4.4853 18.524-6.7103 27.806-1.5694 6.5448-2.8068 13.168-4.3729 19.716-0.54763 2.2872-1.6326 4.447-2.4718 6.6633-0.8776-0.15958-1.7542-0.3189-2.6316-0.47944 0.0452-5.8869-1.4891-12.359 0.42799-17.554 6.0869-16.5 2.827-33.702 5.2052-50.421 0.95897-6.7394 0.97907-13.63 1.1461-20.458 0.10622-4.3528 8.1285-15.631 12.869-17.5-2.427 4.4174-4.8555 8.8364-7.9503 14.467 4.2009 0.70014 8.8035 2.919 10.653 1.5138 6.4631-4.9064 4.814-12.051 3.0781-18.825-2.0972 1.0458-4.0064 1.9971-5.9154 2.9474 0.0764-0.20417 0.0981-0.46651 0.23945-0.60774 8.4611-8.4531 4.5778-18.472 3.6024-28.13-0.12809-1.2684 0.0308-2.5644 0.0686-4.3981-10.626 1.7618-10.98-6.8864-13.724-13.129-0.33572-0.76392-0.0123-1.8202-0.35371-2.5784-1.6762-3.7206-2.5557-9.2434-5.4291-10.664-5.0568-2.4979-15 2.6883-17.544 8.1851-3.2918 7.1155-5.3078 14.848-8.8682 21.807-5.0123 9.7965-11.113 19.031-16.4 28.696-2.8065 5.1304-4.8813 10.66-7.2791 16.012-1.4796 3.3005-2.9468 6.6085-4.4202 9.9127-0.72332-0.0592-1.4466-0.11845-2.1714-0.17601-0.19552-1.9749-1.0548-4.1773-0.47201-5.8847 2.6618-7.7936 5.7867-15.426 8.6282-23.16 1.7497-4.7604 2.9727-9.7343 4.9869-14.369 3.7914-8.725 7.836-17.348 12.057-25.875 3.7251-7.5232 7.3288-15.2 12.008-22.117 2.0052-2.963 6.376-5.0219 10.069-6.0149 11.203-3.0101 11.756-3.335 10.983-14.533-0.17677-2.5703-0.47595-5.132-0.70857-7.6987-10.597-1.6664-11.283-10.896-11.493-21.356-0.0389-1.9526 0.17274-3.9095 0.11047-5.8601-0.0257-0.80819-0.46516-1.6061-0.87335-2.9071-11.29 6.5409-19.4 15.197-24.746 26.859-3.4228 7.4655-8.0978 14.052-16.041 18.199-9.5798 5.001-17.371 12.325-21.656 22.703-0.31132 0.75619-0.98049 1.4724-1.6654 1.9421-1.4231 0.97594-2.9688 1.772-4.4634 2.6439-0.12395-1.6006-0.93176-3.6164-0.25535-4.7344 3.8723-6.3957 7.7558-12.837 12.27-18.781 11.039-14.534 22.424-28.804 33.677-43.174 0.26477-0.33903 0.91919-0.62541 0.8991-0.90203-0.93793-13.473 11.23-12.53 18.51-17.047 2.2662-1.4064 4.4994-3.4894 5.7148-5.8036 1.3831-2.6348 1.6337-5.8692 2.3347-8.8524 0.97617-4.157 0.65226-7.5266-3.2312-10.648-2.6705-2.1463-3.9726-5.9955-5.6722-8.7399-4.5186-0.60821-8.9904-1.4255-13.496-1.7154-1.8782-0.11916-4.1169 0.43117-5.6985 1.4464-10.581 6.7918-21.264 13.47-31.425 20.851-5.3864 3.9132-10.231 8.8039-14.51 13.932-3.4076 4.0821-5.4837 9.253-8.3554 13.815-1.2975 2.0604-3.0897 3.8112-4.656 5.7043-0.78486-0.30865-1.5702-0.61537-2.3548-0.92499 0.80954-3.4656 0.8858-7.3357 2.548-10.328 11.755-21.147 28.457-37.29 50.059-48.322 3.4614-1.7674 6.7379-3.8958 10.1-5.8584-0.70133 0.99851-1.1984 2.2816-2.1365 2.9506-7.8794 5.6253-15.9 11.054-23.734 16.74-2.1681 1.5735-3.8521 3.8129-5.7597 5.7471 0.66748 0.75446 1.335 1.5089 2.0027 2.2624 10.039-7.5873 20.074-15.18 30.121-22.756 2.675-2.0164 2.8346-3.659-0.61888-4.8691 0.60383-2.2535 1.2079-4.508 1.8231-6.804 3.2067 0.61283 5.7259 1.1253 8.2558 1.5744 8.7496 1.5514 8.5828 1.5016 10.679-6.9063 1.5914-6.3795 3.5556-12.675 5.5948-18.929 1.3297-4.0778 0.62967-6.1982-3.8449-7.89-5.6251-2.1274-10.629-5.8513-16.154-8.3195-2.0927-0.93344-5.3814-1.2131-7.287-0.20603-9.6251 5.0851-18.977 10.686-28.418 16.12-8.8436 5.0895-15.809 11.988-20.808 20.962-0.89291 1.6015-3.1321 2.455-4.7484 3.6535-0.1356-2.2063-1.2369-5.1051-0.23855-6.4971 4.135-5.7611 8.4816-11.501 13.542-16.436 7.325-7.1456 14.934-14.135 23.173-20.167 7.2446-5.3037 15.375-9.4868 23.437-13.521 2.1351-1.0678 5.5271-0.0647 8.2174 0.54333 2.5011 0.56457 4.8362 1.8684 7.7194 3.0395 2.825-7.429 5.4878-14.43 8.0357-21.13-7.8976-2.9268-15.939-6.0784-24.105-8.8639-4.2892-1.464-8.0539-0.75937-12.105 2.288-7.9848 6.0071-17.481 10.172-24.855 16.77-6.2606 5.6036-10.913 13.259-15.343 20.572-3.3939 5.6035-5.3313 12.088-7.916 18.18-0.81405-0.0877-1.6278-0.17632-2.4414-0.26593 0.0102-2.8588-0.71914-5.9747 0.16558-8.5308 2.9572-8.5365 4.4506-17.688 11.061-24.77 2.5426-2.7237 3.0442-7.2926 5.4585-10.206 2.6255-3.1684 6.1352-5.8308 9.7176-7.9342 8.1984-4.8183 16.674-9.1606 25.036-13.695-8.6066 5.8508-17.241 11.661-25.794 17.586-1.7939 1.2431-3.2895 2.9149-4.9216 4.3887 0.53601 0.63849 1.0701 1.2764 1.6061 1.9149 13.43-6.2572 25.706-14.245 35.929-25.48-2.3256 0.55396-4.65 1.1072-6.9756 1.6612 6.9439-9.6682 8.2427-10.034 18.52-5.4182 5.453 2.4488 10.941 4.822 16.997 7.4852 1.8902-7.0542 3.403-12.7 5.0102-18.698-12.35-3.3837-19.594-13.218-27.656-23.332-5.5719 4.2424-11.174 8.6185-16.897 12.832-4.4665 3.2891-8.5767 6.3806-14.862 7.088-8.4198 0.95017-13.682 8.5429-19.983 13.74-1.1866 0.97822-2.586 1.6996-4.4209 1.9637 1.3262-7.0862 5.7115-11.818 11.138-15.696 11.634-8.3132 23.296-16.588 35.047-24.731 12.909-8.9447 16.931-8.9251 27.323 2.1387 5.169 5.5023 8.8287 12.422 12.198 17.296-0.17272-14.996 10.635-28.014 18.134-42.381 3.6289-6.9516 9.2966-10.605 17.486-10.128 1.937 0.11215 3.9613-1.2918 5.947-1.9989 6.1394-2.466 12.168-5.2745 18.446-7.3151 9.0044-2.9272 18.275-7.6084 27.28-7.2868 10.075 0.3599 19.942 5.6084 29.984 8.4328 3.2629 0.91674 6.7893 0.89262 9.3682 1.2016-3.5707-4.8411-7.4186-8.918-9.9272-13.697-4.803-9.1519-12.927-13.044-22.131-15.414-10.677-2.7501-20.632 1.5251-30.396 4.5768-5.454 1.7045-10.128 5.472-11.845 12.572-1.5475 6.3975-3.7902 13.511-10.718 17.059-7.0417-1.7357-9.2398-7.8282-4.8852-13.705 1.5485-2.0894 3.17-4.1458 4.9503-6.0375 1.5316-1.6281 3.3358-2.9988 4.9116-4.3862-3.1707-5.851-14.292-5.1806-11.238-14.401-14.019-1.633-28.455-3.5486-42.949-4.7872-2.5942-0.22096-6.1427 1.7053-8.0336 3.7588-10.29 11.178-19.935 22.958-30.417 33.941-2.7179 2.8486-7.5949 3.7211-11.571 5.2646-18.689 7.2521-37.4 14.449-56.134 21.581-1.9714 0.75033-4.1568 0.94328-6.2418 1.395-0.4806-0.48595-0.96147-0.97093-1.4423-1.4559 1.3169-1.6421 2.2974-4.0804 4.0034-4.8025 18.487-7.8343 37.249-15.039 55.55-23.274 5.05-2.2714 9.0296-7.1786 13.139-11.239 10.339-10.218 21.023-20.166 30.535-31.12 10.171-11.712 21.82-8.5302 33.964-5.6571 7.8489 1.8567 16.185 5.6712 23.592 4.4155 10.655-1.8057 12.679 6.0973 16.998 11.196 3.7554 4.434 7.0949 6.8228 12.768 4.4804 9.5467-3.9425 19.175-4.8464 29.456-2.4612 2.663 0.61726 7.905-2.4329 9.3123-5.1658 5.6468-10.959 16.824-12.23 26.334-15.008 13.249-3.872 27.196-5.509 40.938-7.4357 3.7369-0.52367 7.9616 0.91064 11.703 2.1969 15.661 5.387 28.902 14.719 41.255 25.4-0.36585 0.62356-0.7339 1.2476-1.1005 1.8699-10.823-7.1892-21.648-14.379-32.471-21.568-0.49497 0.64176-0.99257 1.2818-1.4875 1.9235 5.8813 4.865 11.763 9.7311 17.645 14.597-0.45514 0.62448-0.90905 1.2482-1.3642 1.8727-5.0682-3.6066-10.414-6.8881-15.133-10.904-5.2232-4.4464-9.537-7.0858-17.392-4.4252-13.122 4.4453-27.022 6.5969-40.595 9.704-0.8513 0.19429-2.0024 7.6e-4 -2.5374 0.49824-5.3582 4.9902-10.617 10.088-15.65 14.913 4.1878 2.6616 9.5652 4.531 12.353 8.3104 2.5604 3.4689 2.3324 8.9952 3.2694 13.334 20.019 8.3064 29.247 26.546 37.765 47.433 2.797-3.7581 4.726-6.1856 6.4794-8.7305 7.9939-11.609 12.018-12.737 24.421-6.0866 8.0484 4.3151 15.785 9.2135 23.877 13.442 2.3548 1.2304 5.4349 1.1488 8.2045 1.4954 6.9191 0.86424 14.082 0.35794 19.676 6.1738 1.8256 1.8992 5.3843 2.1333 8.1503 3.1312-0.296 0.92697-0.58833 1.8518-0.88337 2.7791-2.8535-0.55134-5.6887-1.2406-8.5644-1.6281-6.6246-0.893-13.315-2.5345-19.891-2.1971-6.7597 0.34522-12.276-1.2488-17.742-4.8886-5.2563-3.4997-10.758-6.7081-16.452-9.4148-1.473-0.7001-4.7904 0.2983-6.0299 1.6475-5.9409 6.4657-11.46 13.319-17.56 20.544 1.7596 4.1705 4.0204 9.5303 6.6618 15.795 10.592-8.8563 20.827-17.489 36.106-10.837-2.7789 0.83524-4.9512 1.4893-7.1266 2.1435-0.11178 0.66058-0.2233 1.3202-0.33508 1.9808 10.226 4.4803 20.389 9.1228 30.736 13.299 2.0046 0.81043 4.7389-0.19099 7.1366-0.35708-1.3948-1.9888-2.601-4.1558-4.2542-5.8991-1.0296-1.0875-2.7351-1.5342-4.8884-2.6629 8.4316-0.58466 16.453 5.0319 17.381 11.229 0.11471 0.76579 1.2583 1.3776 1.926 2.0617 0.75283-1.1328 1.505-2.2667 2.5653-3.8596 8.5906 4.9035 18.035 8.6754 22.834 18.097-0.40814 0.64226-0.8175 1.2852-1.2259 1.9284-4.4872-2.5875-8.7722-5.6551-13.508-7.6508-7.2611-3.0575-14.869-5.2781-22.263-8.0327-9.7901-3.6492-19.665-7.139-29.197-11.384-3.7319-1.6625-5.9868-2.7016-9.8386 0.22939-4.5983 3.4991-10.33 5.531-15.616 8.1023-11.889 5.7789-12.145 7.6523-2.38 16.274 5.6449-1.9494 11.802-6.3724 16.444-5.1298 6.6079 1.7706 12.102 7.7017 18.071 11.854-0.2768 0.49213-0.5529 0.98548-0.82996 1.4786-3.9584-2.0804-7.9185-4.1623-11.877-6.2437-0.52155 0.52075-1.0421 1.0418-1.564 1.5635 4.3092 5.2108 8.2187 10.831 13.04 15.513 4.6372 4.5005 10.093 8.211 15.469 11.854 1.3143 0.89051 3.7276 0.16022 5.6353 0.17655-0.80777-1.8884-1.1709-4.2074-2.5068-5.5779-3.4944-3.5804-7.4058-6.7518-11.169-10.069-0.8151-0.7174-1.6997-1.353-2.5534-2.0269 0.77304-0.63247 1.5458-1.264 2.3188-1.8965 5.6243 5.2174 11.478 10.213 16.804 15.72 4.7956 4.9602 9.0103 10.481 13.482 15.755 0.48231-0.39359 0.96583-0.78788 1.4494-1.1822-1.1604-1.5036-2.3218-3.0074-4.0587-5.2607 10.735 3.6115 21.251 13.98 24.22 23.561-1.1685-0.15574-2.6344 0.0488-2.9398-0.45333-6.87-11.283-18.978-15.048-29.875-19.981-13.112-5.937-25.603-12.922-34.255-24.176-5.9723-7.7705-10.49-4.2012-15.919-1.461-3.052 1.5416-5.5095 3.4185-5.3049 7.9675 0.20542 4.573-1.8913 9.2145-2.0208 13.851-0.072 2.5906 1.8345 5.2238 2.7964 7.8585 1.0472 2.8688 2.1662 5.7206 3.0071 8.6521 0.98077 3.4142 2.7412 4.1116 6.3182 3.5202 4.0958-0.677 8.4056-0.0585 12.582-4e-3 0.11833 12.49 24.48 35.57 39.372 36.668-4.0334-4.6638-7.0306-8.1328-10.03-11.6 0.42327-0.47462 0.84557-0.94951 1.2701-1.4248 3.9142 3.5863 7.969 7.0342 11.705 10.798 3.3692 3.3947 6.391 7.1352 9.5666 10.723 0.45499-0.39986 0.90999-0.79972 1.3662-1.2003-1.2073-1.2242-2.4153-2.4496-3.9434-3.9989 8.6831-0.48001 24.92 16.316 26.314 27.03-3.7398-3.2248-6.3056-5.9394-9.3378-7.9528-8.4092-5.5806-16.452-12.275-25.67-15.95-14.461-5.7664-25.491-15.797-36.722-25.663-3.347-2.9405-5.7194-4.0896-9.571-2.226-1.7684 0.85441-3.6092 2.118-5.4443 2.1667-4.3257 0.11328-4.6873 2.471-4.7924 5.997-0.26342 8.8959-1.5106 10.564-8.7405 13.522 1.9799 6.8177 3.9647 13.648 6.0091 20.685 10.652-1.0426 21.695-4.3305 30.025 8.507-3.5066-0.4323-5.2013-0.64104-7.2947-0.89966 8.64 11.917 17.004 23.456 25.369 34.995 0.64864-0.40388 1.2985-0.80847 1.9471-1.2124 0.66084-10.92-8.8204-17.155-14.005-27.093 12.657 8.1733 16.154 21.279 23.749 31.711-0.87587 0.27053-1.9082 0.58815-3.6597 1.1282 2.7806 1.6002 5.115 2.9452 7.4497 4.2893 0.15267-0.16408 0.30727-0.32764 0.4609-0.49146-1.0071-1.0867-2.0129-2.174-3.2761-3.5374 8.2734 1.1764 18.413 13.211 21.989 26.088-1.7256-0.83921-3.3808-1.1336-4.1938-2.1217-7.5671-9.1907-16.208-17.023-26.911-22.467-10.685-5.4348-14.527-16.635-20.661-25.717-3.0693-4.5411-5.9129-7.092-11.255-7.073-3.2836 0.0105-6.6404 0.0314-9.839-0.59584-6.0218-1.1798-6.3785 1.4185-5.8707 6.5321 0.61208 6.181 2.4013 14.63-0.74543 18.299-6.4443 7.51-1.4876 16.015-5.0129 23.214-0.36975 0.754 0.31431 2.0223 0.5091 3.0455 0.9199 0.12536 1.6696 0.47636 2.1758 0.26001 6.0753-2.6054 9.9778-1.1042 13.914 4.6733 5.4701 8.0221 12.779 14.768 18.616 22.571 3.3135 4.4295 5.3552 9.8341 7.8016 14.88 4.0607 8.3712 8.1656 16.728 11.907 25.244 2.4954 5.6783 3.6688 11.654 1.8161 17.653-0.66032 0.1616-1.3199 0.32443-1.9812 0.48577-0.76154-1.7093-1.851-3.3502-2.2356-5.1408-2.8254-13.14-8.4624-24.186-19.016-33.349-6.3912-5.5503-10.838-13.751-14.95-21.41-4.6463-8.6586-10.223-13.403-21.029-8.9662-0.92499 5.9597-1.9952 12.863-3.0665 19.767-0.71151 0.19034-1.4208 0.38022-2.1336 0.57126-1.8985-2.2997-3.7977-4.6007-6.4296-7.7874 0.1331 6.1759 1.2144 11.714 0.1764 16.825-2.6574 13.093 2.7889 18.106 15.298 20.772 7.8399 1.67 13.471 7.7557 15.985 17.592 3.8681 15.137 8.1327 30.019 9.9637 45.641 0.72812 6.2194 5.0898 11.93 6.9346 18.127 1.753 5.8832 3.9045 12.107-0.15798 19.023-1.2033-1.3163-2.4264-2.1337-2.9182-3.2697-5.7528-13.276-11.82-26.441-16.878-39.984-2.3153-6.1995-2.8697-13.129-3.6935-19.791-0.63205-5.1097-0.4345-10.321-0.58115-14.754-8.9898-4.2019-17.22-8.048-26.011-12.157-2.6633 7.6328-5.0956 14.601-8.0887 23.182-3.0657-4.8942-4.9614-7.9231-7.5668-12.082 0.19378 5.366 0.85865 9.4761 0.34529 13.432-0.55686 4.2921-2.4393 8.3926-3.3131 12.666-0.63751 3.1172-0.41644 6.3993-0.88086 9.566-0.3418 2.3227-1.1712 4.5758-2.1138 8.0937-3.0945-2.5074-5.3069-4.3-7.9675-6.4561-0.38256 6.5626-0.59315 12.765-1.1915 18.932-0.18615 1.9234-1.4226 3.7444-2.1766 5.6119-1.7466-0.98875-3.4805-1.9979-5.2454-2.9491-0.52645-0.28393-1.1418-0.40222-1.7164-0.59551-2.7992 10.366 0.87843 19.865 3.4862 29.401 0.36698 1.3427 3.2904 2.2669 5.1938 2.8638 15.013 4.7144 30.07 9.2871 45.098 13.96 0.96137 0.29901 1.7803 1.0599 2.4285 2.4583-19.263-1.5495-38.363-3.6028-57.256-11.852 1.1506 7.4092-1.1953 14.344 3.5092 22.141 8.6444 14.319 15.094 29.965 22.439 45.067 2.1993 4.5192 4.5362 8.9883 6.3938 13.647 0.74781 1.8765 0.37296 4.2027 0.51046 6.3246-0.65738 0.17377-1.3162 0.34923-1.9739 0.52397-1.1385-1.9408-2.4056-3.8187-3.3915-5.8346-7.5702-15.465-14.69-31.171-22.771-46.362-4.6253-8.6944-11.554-16.184-16.013-24.942-3.4254-6.7278-4.6114-14.596-6.976-22.571-10.96 7.2327-22.935 8.6322-34.034 0.0739-6.2398 13.667-12.929 26.761-18.268 40.383-7.2307 18.439-13.251 37.35-20.219 55.899-1.3675 3.6391-4.6802 6.5478-7.0948 9.7945-0.0118-0.0177 0.0729 0.0796 0.0729 0.0796zm-6.5894-464.02c1.402 2.5104 1.4713 3.7858-2.2051 3.9602-10.211 0.48462-20.431 1.1617-30.579 2.3382-2.7175 0.31644-6.8696 2.1813-7.4921 4.2145-2.6484 8.6399-4.9557 17.533-5.8962 26.491-0.5362 5.1114 3.1046 10.097 8.8049 10.664 9.434 0.94075 19.004 1.4811 28.458 1.0087 10.202-0.50878 20.306-3.0876 30.505-3.5072 26.358-1.0819 52.755-1.2268 79.118-2.2246 16.049-0.60692 32.081-1.9057 48.07-3.4305 2.1747-0.2072 5.8506-3.6367 5.7553-5.4098-0.42005-7.9216-1.6009-15.863-3.3306-23.615-0.45139-2.0207-3.7186-4.5557-5.9477-4.8372-9.0197-1.1383-18.165-1.2334-27.214-2.1861-14.743-1.5528-29.432-3.6095-44.171-5.1901-7.9645-0.85345-16.062-2.1111-23.968-1.5047-13.223 1.0164-26.406 3.0308-39.47 5.3777-4.2114 0.75681-7.3976 0.50454-10.556-2.0737 7.7444-1.157 15.478-2.3812 23.234-3.4563 17.03-2.3607 33.948-4.5454 51.343-2.599 21.533 2.4093 43.247 3.1547 64.853 4.9684 4.9492 0.4151 5.8816-1.7472 5.1923-5.573-2.3219-12.89-4.8415-25.015-17.44-33.357-18.761-12.42-38.834-20.672-60.843-24.12-7.2043-1.1291-15.037-1.417-22.074 0.1674-19.076 4.2952-37.687 9.6891-55.484 18.734-16.788 8.5316-24.698 21.087-26.859 38.677-0.869 7.0721 0.46717 8.6382 7.7137 8.323 10.168-0.43926 20.321-1.2099 30.484-1.8399zm165.74 155.13c-3.4317-15.958-7.0559-31.085-9.8135-46.368-1.3123-7.2807-6.2592-9.3889-11.886-9.6927-20.78-1.1183-41.589-1.6794-62.393-2.303-4.0852-0.12354-8.1962 0.70675-12.28 0.58565-9.7658-0.28945-19.518-1.2348-29.28-1.2828-23.123-0.11148-45.236 5.9437-67.261 12.044-7.0633 1.9576-14.994 3.5915-14.853 14.076 0.081 6.0574-1.942 12.143-1.8582 18.201 0.12541 9.0985-2.0514 18.718 3.9892 27.203 1.0702-0.4897 1.9752-0.70273 2.622-1.2313 22.778-18.625 49.939-22.663 78.042-23.19 8.2718-0.15436 16.598 1.4792 24.84 1.0735 13.944-0.68744 27.844-3.3402 41.757-3.2886 11.389 0.04 22.924 2.1132 34.098 4.6175 7.6456 1.7153 14.782 5.7157 24.277 9.555zm-6.1069-61.271c4.9066-16.055 1.3917-29.941-4.3787-43.6-1.7093-4.0452-4.2236-5.248-8.286-3.386-1.3511 0.61839-2.9278 1.0241-4.4062 1.0359-18.412 0.14048-36.825 0.12836-55.236 0.28051-19.117 0.15844-38.252 0.011-57.342 0.8612-10.586 0.47128-21.063 3.0247-31.646 4.0578-10.402 1.0175-20.912 0.95615-31.294 2.0979-3.4428 0.37677-8.9168 2.403-9.5523 4.7402-2.8968 10.645-5.2858 21.597-6.146 32.573-0.79977 10.21 3.714 13.177 13.891 11.304 2.7758-0.51097 5.4768-1.4188 8.2368-2.0407 22.252-5.0083 44.212-11.981 67.565-9.2522 5.1808 0.60553 10.509 0.43586 15.733 0.0818 12.138-0.82236 24.256-2.847 36.375-2.7843 17.884 0.0908 35.764 1.513 53.638 2.5091 4.4184 0.24389 8.8059 1.0282 12.848 1.5212zm-182.62 137.15c20.552-30.551 49.589-44.824 83.955-48.143 34.802-3.3612 66.138 5.522 92.049 32.268 1.4392-8.1761 3.1138-15.369 3.8812-22.656 0.90585-8.5851 1.4368-17.262 1.2443-25.879-0.0607-2.7525-2.3097-6.8502-4.6517-7.9043-8.1058-3.6451-16.522-6.9067-25.136-9.0603-16.498-4.1257-33.36-1.9548-50.101-1.554-15.958 0.38189-31.951 0.10096-47.874 1.0377-21.358 1.257-40.879 8.5821-58.641 20.434-1.9476 1.2992-4.491 3.9948-4.321 5.8179 1.4876 15.985 3.4196 31.933 5.53 47.85 0.30661 2.3215 2.2499 4.423 4.0642 7.7903zm16.354 48.359c0.7825-0.0843 1.5667-0.16722 2.3484-0.25279 6.4691-20.909 18.353-38.04 36.271-50.446 13.498-9.346 28.283-17.16 45.165-11.031 19.735 7.1649 37.725 17.419 47.753 37.417 3.6537 7.29 7.4755 14.494 11.221 21.739 0.57027 0.0586 1.1412 0.11841 1.7122 0.17823 1.891-14.302 4.1158-28.57 5.5765-42.916 1.2893-12.663-2.2794-22.484-14.602-29.649-23.152-13.465-47.748-20.255-73.809-15.482-18.329 3.3564-37.059 8.9421-50.985 22.868-7.3264 7.3285-15.736 14.606-16.838 26.059-0.44746 4.6527-0.38176 9.4999 0.40666 14.096 1.5777 9.1998 3.8154 18.286 5.7803 27.419zm139.37-322.11c0.33743-0.72228 0.67609-1.4453 1.0138-2.1685-1.0488-3.0442-2.0726-6.0972-3.1534-9.1303-4.965-13.941-14.054-24.876-24.717-34.851-3.2013-2.9936-5.8271-3.8152-10.229-3.4996-5.6881 0.40667-11.648-0.68084-17.257-2.072-7.1771-1.7792-13.989-5.0993-21.194-6.6747-10.738-2.3514-20.513 1.6687-30.302 5.7832-8.7742 3.6867-17.985 6.3194-26.974 9.5044-3.0564 1.0828-7.2203 1.5697-8.8169 3.8036-6.2593 8.7553-12.13 17.864-17.249 27.326-2.47 4.5663-2.9509 10.209-4.7579 16.953 54.566-34.086 108.35-43.101 163.64-4.9743zm-6.8573 334.68c2.4501-11.733-1.4489-20.085-9.9912-23.33-12.511-4.7509-25.506-7.0682-38.845-7.9446-18.866-1.2391-36.726 3.5267-54.512 8.7234-4.9911 1.4568-9.8488 3.4898-14.572 5.6811-1.5272 0.70784-3.2862 2.6705-3.4588 4.2227-0.5799 5.2436-0.49666 10.562-0.62039 14.428 5.0159-2.2256 9.5958-4.9025 14.536-6.342 26.216-7.6361 53.134-7.6279 79.923-5.2597 9.2604 0.81969 20.126-0.18223 27.542 9.8209zm-1.5585-27.643c-10.936-14.509-21.473-26.543-40.75-26.879-17.327-0.30192-34.113 0.15409-51.059 5.3441-11.829 3.6239-17.07 11.386-23.001 22.468 38.768-10.798 76.126-11.943 114.81-0.93387zm-108.84 48.571c6.6978-2.4168 12.802-5.8736 19.243-6.6977 15.723-2.0091 31.61-3.8913 47.413-3.7402 13.053 0.12448 27.491-3.8572 38.513 7.7656 3.084-9.2997 1.6248-15.882-4.9834-18.18-7.9954-2.7822-16.302-5.1145-24.664-6.3064-18.951-2.7021-37.764-0.69059-56.482 3.043-16.267 3.2434-22.047 10.025-19.295 23.756 0.0383 0.18936 0.24405 0.34492 0.25543 0.36039zm10.226 21.176c6.9879-2.3174 12.852-5.3054 18.992-6.0715 11.032-1.3775 22.285-0.93814 33.346-2.1568 11.16-1.2274 21.878-0.97895 32.543 4.3687 0.30031-2.2644 0.82056-4.3799 0.82193-6.4946 6e-3 -10.469 0.0653-11.004-10.247-13.076-20.632-4.143-41.514-5.5735-62.112-0.30625-5.4283 1.3884-11.754 5.0871-14.418 9.6296-2.1393 3.6528 0.63165 10.18 1.0736 14.107zm33.035 23.653c9.9161 2.7191 21.5-0.94263 28.406-7.5762 2.5822-2.4812 6.366-3.6632 9.2639-5.8776 1.9059-1.4564 4.812-4.1728 4.426-5.4947-0.67856-2.3166-3.2693-5.1817-5.5405-5.6961-4.8306-1.0935-9.9912-1.2681-14.979-1.0309-13.153 0.62287-26.296 1.5562-39.415 2.6914-1.4677 0.12643-3.901 2.3649-3.8832 3.5965 0.0386 2.6493-0.69655 6.7994 4.1984 6.5322 6.6288-0.36272 10.417 3.3316 13.484 8.6103 1.1344 1.9521 3.1832 3.3738 4.0389 4.245zm-22.412-124.4c17.861-0.31081 36.24-0.62893 55.445-0.96248-15.846-12.317-42.003-11.311-55.445 0.96248zm-31.154-366.55c0.24164-0.39181 0.48232-0.78387 0.7237-1.1747-1.4947-1.0828-2.8584-2.8126-4.5057-3.1443-12.77-2.5789-25.566-5.0738-38.44-7.0347-1.5231-0.23108-3.561 2.9157-5.36 4.4949 0.41848 0.77574 0.8367 1.5524 1.2554 2.3272 15.442 1.5112 30.884 3.0214 46.327 4.5316zm27.396 495.51c0.48569 4.8986 1.0302 10.883 1.8508 16.827 0.0324 0.23439 3.78 0.52836 3.9535 0.082 2.8567-7.3966 5.7588-14.819 7.7582-22.471 0.38925-1.4952-2.6293-4.7266-4.7426-5.6873-1.1037-0.50176-4.0876 1.848-5.4464 3.5348-1.4376 1.7837-1.9532 4.3104-3.3734 7.7137zm108-513.68c-12.859-1.7996-42.936 6.2979-46.8 12.602 18.162-1.0417 45.776-8.4762 46.8-12.602zm-40.746 530.69c0.355-0.54054 1.0022-1.0742 1.0172-1.621 0.14397-5.6026-1.5299-11.275 3.1533-16.432 0.98337-1.0813-2.4838-6.2084-3.9008-9.4703-2.5747 1.5453-5.7282 2.5886-7.5964 4.7466-3.2911 3.8017 1.8989 19.117 7.3267 22.776zm99.863-150.37c0.63711-0.88631 1.273-1.7719 1.9086-2.6565-7.5594-10.128-15.119-20.254-23.121-30.975-2.1452 5.17 4.5012 17.789 15.281 30.669 1.3022 1.554 3.9236 2.0017 5.9315 2.9621zm-16.437 82.623c1.5815-8.1432-3.8479-32.545-8.0152-36.025-0.66383 20.096 2.3289 33.543 8.0152 36.025zm-11.923-49.494c-5.7386-2.5191-11.296-5.178-17.044-7.329-1.4437-0.53902-3.495 0.54811-5.2673 0.88798 0.67166 1.8902 0.79747 4.4614 2.1281 5.523 2.5082 2.0024 5.8796 2.8851 8.5891 4.6888 4.5734 3.0424 8.0867 2.5457 11.594-3.7707zm-235.61-116.34c-9.5642 12.597-18.04 23.758-27.214 35.842 7.7248 0.14838 25.056-23.475 27.214-35.842zm-1.3461-160.34c0.69548 8.7792 9.2781 13.913 22.635 14.118-0.59197-2.0563-0.59704-4.9274-1.7051-5.4479-6.61-3.0994-13.475-5.6564-20.93-8.6696zm3.1677 44.6c-7.207-2.5833-31.036 11.025-33.908 18.327 11.785-6.3688 22.847-12.349 33.908-18.327zm21.029-64.915c0.69482-0.51056 1.3906-1.0209 2.0861-1.5302-5.0807-6.6123-10.16-13.224-15.656-20.376-3.9202 6.6904 4.3754 18.363 13.57 21.906zm-12.909-96.111c-0.53016-0.46713-1.0622-0.93478-1.5931-1.4031-10.628 11.372-21.258 22.742-31.886 34.113 0.67242 0.60464 1.3436 1.21 2.016 1.8146 10.488-11.508 20.976-23.015 31.464-34.524zm-12.676 271.98c5.9781 5.423 10.653 6.536 15.099 0.59092 0.43699-0.58379 1.8907-0.39512 2.349-0.97734 0.93493-1.1864 1.5122-2.653 2.2379-4.0053-1.2697-0.46963-2.7498-1.6147-3.7754-1.2953-5.0942 1.5825-10.068 3.5512-15.91 5.687zm-24.097-179.27c0.52883 0.71939 1.0579 1.4378 1.587 2.1562 9.1398-6.8633 18.28-13.728 27.42-20.591-11.841 3.0823-20.733 10.323-29.007 18.435zm102.02-98.411c-1.9289 3.675-3.8177 7.2738-5.8503 11.147 2.7648 2.594 6.3598 7.6922 10.37 3.7364 7.2289-7.1269-3.0365-10.092-4.52-14.883zm-88.143 386.12c1.2014 0.57764 2.4041 1.1546 3.6048 1.731 5.2395-11.695 10.479-23.393 15.718-35.089-0.54889-0.26199-1.0978-0.52399-1.6479-0.78527-5.8923 11.381-11.784 22.764-17.675 34.144zm243.71-276.5c-6.077 2.0397-13.723 8.9429-14.482 14.081 4.1032-1.6358 7.5403-3.4593 11.204-4.368 6.6224-1.6409 6.7102-4.9479 3.2775-9.7127zm-23.858-17.373c6.1963-2.427 9.5059-6.7383 11.256-11.81 0.54517-1.5787-2.245-4.3099-4.0588-7.4742-3.1145 6.9445-9.1213 11.071-7.1974 19.284zm-58.841-94.348c-7.629 5.7069-8.16 8.6777-2.1305 13.959 3.3291-2.2821 6.7264-4.6102 10.145-6.9522-3.2843-2.8729-5.6467-4.9367-8.0145-7.0071zm-112.69 433.16c-2.6369 11.92-5.1986 23.852-3.3315 36.021 1.0026 0.0409 2.0044 0.0805 3.007 0.12142 0.10783-12.048 0.21662-24.095 0.32444-36.143zm192.88-357.89c-0.34266 0.73019-0.68578 1.4582-1.0284 2.1884 7.6328 4.4947 15.223 9.0628 22.952 13.385 0.95065 0.53218 2.6398-0.25444 3.9868-0.42874-0.48333-1.0592-0.6834-2.6771-1.4968-3.0918-8.0799-4.132-16.261-8.0644-24.413-12.053zm-214.9 106.42c0.47816-0.4361 0.95684-0.87413 1.4355-1.3122-0.71173-5.0596 1.0891-11.39-6.8695-13.085-1.451 2.4365-2.7851 4.6796-4.4715 7.5116 3.4438 2.3939 6.6746 4.6396 9.9055 6.8853zm-1.1222 42.195c-4.2171 0.15999-6.9718 0.26355-10.02 0.37843-0.45626 2.263-0.8693 4.3068-1.5814 7.8336 4.3814-0.39857 7.9513-0.33755 11.205-1.322 0.7058-0.21153 0.27999-4.1706 0.39681-6.8901zm234.06 37.06c-4.5712 0.96785-7.8948 1.5329-11.097 2.5042-0.46396 0.13968-0.73602 3.1333-0.42441 3.2685 3.1468 1.3732 6.4307 2.4281 10.258 3.7757 0.44295-3.3609 0.69515-5.2603 1.2633-9.5484zm-227.65 85.522c3.2058-1.8762 5.6591-3.1848 7.8624-4.8276 0.18523-0.13878-1.5959-3.7612-1.9726-3.6727-2.9638 0.69459-5.8088 1.9003-8.6892 2.9485 0.75426 1.4931 1.507 2.9879 2.7995 5.5517zm213.85-199.78c-1.2399-0.44196-2.4795-0.88488-3.72-1.3281-1.1571 2.3361-2.3132 4.6725-3.47 7.0077 1.7546 0.49914 3.5109 0.99975 5.2664 1.4991 0.64109-2.3926 1.2824-4.7862 1.9235-7.1788zm-157.82 370.75c0.22625 0.68179 0.45179 1.3624 0.679 2.0444 5.3479-1.8571 10.696-3.7143 16.044-5.5714-0.17456-0.53853-0.34746-1.0756-0.52202-1.6141-5.4005 1.7136-10.801 3.4272-16.201 5.1411z" clip-rule="evenodd" fill-rule="evenodd"/>

<metadata id="metadata5"><rdf:RDF><cc:Work><dc:format>image/svg+xml</dc:format><dc:type rdf:resource="http://purl.org/dc/dcmitype/StillImage"/><cc:license rdf:resource="http://creativecommons.org/licenses/publicdomain/"/><dc:publisher><cc:Agent rdf:about="http://openclipart.org/"><dc:title>Openclipart</dc:title></cc:Agent></dc:publisher></cc:Work><cc:License rdf:about="http://creativecommons.org/licenses/publicdomain/"><cc:permits rdf:resource="http://creativecommons.org/ns#Reproduction"/><cc:permits rdf:resource="http://creativecommons.org/ns#Distribution"/><cc:permits rdf:resource="http://creativecommons.org/ns#DerivativeWorks"/></cc:License></rdf:RDF></metadata></svg>
