<?xml version="1.0" encoding="UTF-8"?>
<!DOCTYPE svg  PUBLIC '-//W3C//DTD SVG 1.1//EN'  'http://www.w3.org/Graphics/SVG/1.1/DTD/svg11.dtd'>
<!-- Uploaded to: SVG Repo, www.svgrepo.com, Generator: SVG Repo Mixer Tools -->
<svg id="_x32_" version="1.1" viewBox="0 0 512 512" xml:space="preserve" xmlns="http://www.w3.org/2000/svg">
<style type="text/css">
	.st0{fill:#FFCC00;}
</style>

	<rect class="st0" x="156.88" y="246.97" width="198.24" height="47.094"/>
	<rect class="st0" x="156.88" y="315.86" width="198.24" height="47.094"/>
	<path class="st0" d="m161.44 387.24c11.567 36.775 43.999 64.239 83.416 68.662v26.727c0 6.158 4.989 11.148 11.147 11.148s11.146-4.99 11.146-11.148v-26.727c39.418-4.423 71.848-31.887 83.415-68.662h-189.12z"/>
	<path class="st0" d="m152.14 62.6c5.954 1.826 12.089 1.066 17.203-1.632 14.299 12.155 23.598 24.164 29.732 34.551-25.491 17.94-42.195 47.525-42.195 81.068v47.094h198.24v-47.094c0-33.543-16.704-63.128-42.195-81.068 6.134-10.387 15.422-22.396 29.722-34.551 5.114 2.698 11.248 3.458 17.214 1.632 11.986-3.662 18.722-16.352 15.071-28.327-3.664-11.974-16.352-18.722-28.339-15.058-11.974 3.662-18.71 16.34-15.058 28.326 0.272 0.873 0.68 1.656 1.043 2.472-15.298 13.097-25.571 26.274-32.442 37.92-13.302-6.634-28.259-10.466-44.134-10.466-15.876 0-30.833 3.832-44.146 10.466-6.872-11.646-17.145-24.811-32.431-37.92 0.362-0.816 0.771-1.599 1.031-2.472 3.662-11.986-3.084-24.664-15.059-28.326-11.986-3.664-24.664 3.084-28.326 15.058-3.665 11.976 3.082 24.665 15.067 28.327z"/>
	<path class="st0" d="m108.19 433.47c-21.705 0-41.231-8.721-55.508-22.94-14.232-14.277-22.952-33.805-22.952-55.52 0-7.132 0.953-14.072 2.778-20.616 18.484 17.396 43.318 28.055 70.726 28.055 14.05 0 27.443-2.836 39.644-7.916v-27.702c-11.646 6.848-25.13 10.841-39.644 10.841-21.704 0-41.242-8.778-55.507-22.998-1.396-1.394-2.722-2.824-4.014-4.366-5.796-6.691-10.41-14.367-13.631-22.748-3.424-8.776-5.306-18.336-5.306-28.349 0-21.704 8.72-41.287 22.952-55.507 14.265-14.231 33.803-22.997 55.507-22.997 14.515 0 27.999 3.991 39.644 10.841v-27.68c-12.202-5.092-25.594-7.938-39.644-7.938-57.039 0.046-103.24 46.243-103.24 103.28 0 19.233 5.261 37.217 14.424 52.639-6.101 13.132-9.468 27.749-9.468 43.159 0 57.05 46.198 103.24 103.24 103.24 24.72 0 47.378-8.698 65.146-23.156-5.59-6.032-10.556-12.678-14.775-19.912-13.664 11.44-31.161 18.29-50.371 18.29z"/>
	<path class="st0" d="m512 259.21c0-57.039-46.187-103.24-103.23-103.28-14.061 0-27.442 2.846-39.655 7.938v27.68c11.646-6.85 25.14-10.841 39.655-10.841 21.705 0 41.232 8.766 55.508 22.997 14.22 14.22 22.94 33.804 22.94 55.507 0 10.013-1.882 19.573-5.306 28.349-3.21 8.38-7.825 16.057-13.62 22.748-1.292 1.542-2.631 2.972-4.014 4.366-14.276 14.22-33.803 22.998-55.508 22.998-14.515 0-28.009-3.992-39.655-10.841v27.702c12.212 5.08 25.606 7.916 39.655 7.916 27.409 0 52.231-10.66 70.715-28.055 1.837 6.543 2.778 13.484 2.778 20.616 0 21.715-8.72 41.243-22.94 55.52-14.276 14.22-33.804 22.94-55.507 22.94-19.221 0-36.708-6.85-50.371-18.291-4.218 7.234-9.196 13.88-14.776 19.912 17.758 14.458 40.427 23.156 65.147 23.156 57.039 0 103.22-46.187 103.22-103.24 0-15.41-3.367-30.027-9.457-43.159 9.161-15.421 14.412-33.405 14.412-52.638z"/>

</svg>
