<?xml version="1.0" encoding="UTF-8"?>
<!DOCTYPE svg  PUBLIC '-//W3C//DTD SVG 1.1//EN'  'http://www.w3.org/Graphics/SVG/1.1/DTD/svg11.dtd'>
<!-- Uploaded to: SVG Repo, www.svgrepo.com, Generator: SVG Repo Mixer Tools -->
<svg id="_x32_" width="800px" height="800px" version="1.1" viewBox="0 0 512 512" xml:space="preserve" xmlns="http://www.w3.org/2000/svg">
<style type="text/css">
	.st0{fill:#8F4F00;}
</style>

	<path class="st0" d="m405.3 255.13-80.064-18.658 81.293-6.766 64.205-64.92 24.038-104.02-17.533-3.906-28.781 95.496-53.08 52.434-85.949 7.15 74.057-30.577 29.922-84.981-17.96-96.376-17.681 3.078 10.723 90.684-23.863 67.744-60.613 25.023c-2.346-13.985-4.987-22.738-4.987-22.738l5.38-24.806-16.139-32.46-21.508 3.828 10.758 20.995-5.388 24.804h-32.268l-5.371-24.804 10.75-20.995-21.509-3.828-16.138 32.46 5.379 24.806s-2.642 8.753-4.978 22.738l-60.621-25.023-23.864-67.744 10.725-90.684-17.682-3.078-17.97 96.378 29.932 84.981 74.066 30.577-85.958-7.15-53.088-52.434-28.772-95.497-17.525 3.906 24.029 104.02 64.205 64.92 81.303 6.766-80.073 18.658-59.837 65.783-13.663 104.7 17.647 3.235v-8e-3l18.606-95.732 49.54-54.475 58.755-13.688-58.25 38.092-15.58 130.56 44.117 78.407 15.685-9.181-34.796-74.301 13.121-109.99 67.597-44.186c0.47 1.962 0.977 3.932 1.526 5.902-69.916 66.82-57.36 194.71 44.823 194.71 102.2 0 114.76-127.89 44.832-194.71 0.549-1.97 1.063-3.941 1.534-5.902l67.597 44.186 13.112 109.99-34.788 74.301 15.693 9.181 44.109-78.408-15.589-130.56-58.242-38.092 58.747 13.688 49.54 54.475 18.606 95.732v8e-3l17.656-3.235-13.672-104.7-59.828-65.782z"/>

</svg>
