<?xml version='1.0' encoding='iso-8859-1'?>
<!DOCTYPE svg PUBLIC '-//W3C//DTD SVG 1.1//EN' 'http://www.w3.org/Graphics/SVG/1.1/DTD/svg11.dtd'>
<!-- Uploaded to: SVG Repo, www.svgrepo.com, Generator: SVG Repo Mixer Tools -->
<svg fill="#009966" height="800px" width="800px" version="1.1" xmlns="http://www.w3.org/2000/svg" viewBox="0 0 249.01 249.01" xmlns:xlink="http://www.w3.org/1999/xlink" enable-background="new 0 0 249.01 249.01">
  <path d="m218.411,143.408l-44.535-17.814c-2.04-0.816-4.335-0.695-6.279,0.327l-20.262,10.668c0.217-5.727 0.359-11.238 0.45-16.301l5.198,4.165c1.348,1.079 3.006,1.646 4.69,1.646 0.716,0 1.438-0.103 2.142-0.313 1.303-0.389 2.445-1.126 3.346-2.095l.009,.009 32.039-34.524c1.402-1.511 2.121-3.532 1.987-5.59l-2.055-31.491 15.314,16.842c2.786,3.066 7.53,3.29 10.595,0.503 3.064-2.786 3.29-7.53 0.503-10.595l-29.743-32.71c-1.797-1.976-4.506-2.848-7.119-2.288-2.611,0.56-4.729,2.465-5.559,5.003l-25.222,77.126-5.994-4.803c-0.165-12.855-1.61-21.646-4.571-27.633 6.133-3.687 9.646-9.463 9.646-16.671 0-2.022-0.295-4.081-0.855-6.118l28.953-38.763c2.479-3.318 1.798-8.019-1.52-10.497-3.317-2.477-8.018-1.799-10.497,1.521l-25.419,34.032c-0.13-0.12-0.262-0.238-0.393-0.355v-10.513c0-4.143-3.357-7.5-7.5-7.5-4.143,0-7.5,3.357-7.5,7.5v3.424c-1.22-0.17-2.466-0.269-3.74-0.269-1.271,0-2.513,0.098-3.729,0.267v-3.426c0-4.143-3.357-7.5-7.5-7.5-4.143,0-7.5,3.357-7.5,7.5v10.512c-0.141,0.125-0.281,0.251-0.418,0.379l-25.435-34.051c-2.479-3.318-7.178-3.999-10.497-1.521-3.319,2.479-3.999,7.179-1.521,10.498l28.982,38.801c-0.551,2.023-0.844,4.07-0.844,6.079 0,7.194 3.5,12.964 9.611,16.65-2.968,5.988-4.416,14.786-4.582,27.659l-5.987,4.797-25.222-77.125c-0.83-2.538-2.947-4.443-5.558-5.003-2.612-0.557-5.322,0.313-7.119,2.288l-29.745,32.711c-2.787,3.064-2.562,7.809 0.503,10.595 3.064,2.785 7.808,2.56 10.595-0.503l15.314-16.842-2.055,31.491c-0.134,2.058 0.585,4.079 1.987,5.59l32.039,34.524 .009-.009c0.9,0.969 2.043,1.706 3.346,2.095 0.704,0.21 1.426,0.313 2.142,0.313 1.684,0 3.343-0.567 4.69-1.646l5.191-4.159c0.092,5.061 0.233,10.568 0.45,16.291l-20.255-10.664c-1.943-1.022-4.24-1.143-6.279-0.327l-44.535,17.814c-3.847,1.539-5.717,5.903-4.179,9.749 1.174,2.933 3.989,4.717 6.966,4.717 0.928,0 1.87-0.173 2.783-0.538l41.32-16.528 25.068,13.198c0.23,3.513 0.496,7.015 0.802,10.454l-42.647,27.139c-1.647,1.048-2.821,2.697-3.271,4.597l-10.333,43.581c-0.955,4.03 1.537,8.072 5.567,9.028 0.582,0.138 1.164,0.204 1.736,0.204 3.396,0 6.475-2.323 7.292-5.771l9.631-40.619 33.924-21.588c3.557,24.389 9.349,34.561 19.248,34.561 9.896,0 15.688-10.174 19.244-34.564l33.928,21.591 9.631,40.619c0.818,3.448 3.895,5.771 7.292,5.771 0.572,0 1.154-0.066 1.736-0.204 4.03-0.956 6.522-4.998 5.567-9.028l-10.333-43.581c-0.45-1.899-1.624-3.549-3.271-4.597l-42.654-27.144c0.306-3.438 0.57-6.936 0.801-10.447l25.075-13.201 41.32,16.528c0.913,0.365 1.855,0.538 2.783,0.538 2.976,0 5.793-1.784 6.966-4.717 1.538-3.845-0.332-8.209-4.179-9.749zm-42.986-54.963l5.883-17.987 .71,10.884-6.593,7.103zm-44.37-42.196c0.319,0.258 0.661,0.488 1.023,0.692 3.617,2.659 5.914,6.822 5.914,9.928 0,5.992-12.093,6.165-13.472,6.165-1.378,0-13.462-0.173-13.462-6.165 0-3.093 2.273-7.234 5.862-9.896 0.388-0.215 0.754-0.463 1.096-0.74 1.905-1.164 4.112-1.902 6.504-1.902 2.403,7.10543e-15 4.622,0.744 6.535,1.918zm-63.353,24.208l5.883,17.987-6.593-7.104 .71-10.883zm56.801,127.64c-1.877-4.512-4.07-13.838-5.75-29.961-0.01-0.41-0.051-0.82-0.129-1.228-0.51-5.077-0.968-10.813-1.352-17.256 0.021-0.493-0.008-0.983-0.083-1.467-0.678-11.922-1.1-26.212-1.119-43.237 0.001-0.056 0-0.111 0-0.167-0.001-0.354-0.003-0.694-0.003-1.05 0-16.979 2.286-22.705 3.648-24.607 0.584-0.815 0.781-1.09 4.526-1.09h0.525c3.74,0 3.921,0.253 4.521,1.089 1.362,1.902 3.647,7.63 3.647,24.608 0,17.6-0.43,32.296-1.125,44.518-0.065,0.439-0.091,0.886-0.076,1.334-0.386,6.492-0.847,12.269-1.36,17.377-0.067,0.367-0.104,0.736-0.115,1.105-1.68,16.167-3.876,25.514-5.755,30.032z"/>
</svg>
