<?xml version="1.0" encoding="iso-8859-1"?>
<!-- Uploaded to: SVG Repo, www.svgrepo.com, Generator: SVG Repo Mixer Tools -->
<svg fill="#FF3399" height="800px" width="800px" version="1.1" id="Layer_1" xmlns="http://www.w3.org/2000/svg" xmlns:xlink="http://www.w3.org/1999/xlink" 
	 viewBox="0 0 512.004 512.004" xml:space="preserve">
<g>
	<g>
		<path d="M510.565,362.199l-51.2-76.8c-1.007-1.51-2.475-2.662-4.181-3.285l-91.401-33.237
			c-17.237-24.602-36.028-47.556-50.662-64.495l55.885-13.969c2.193-0.546,4.079-1.946,5.239-3.883l25.6-42.667
			c2.432-4.045,1.118-9.284-2.918-11.708c-4.045-2.432-9.293-1.126-11.708,2.918l-23.791,39.637l-55.953,13.995
			c1.084-4.838,1.724-9.882,1.724-15.104c0-6.716-1.041-13.21-2.833-19.345c0.102-0.094,0.23-0.12,0.333-0.222l34.133-34.133
			c1.604-1.596,2.5-3.772,2.5-6.033v-25.6c0-4.71-3.823-8.533-8.533-8.533c-4.71,0-8.533,3.823-8.533,8.533v22.067l-27.383,27.383
			c-1.51-2.347-3.209-4.531-5.026-6.605c4.19-4.557,6.81-10.581,6.81-17.246c0-10.923-6.912-20.198-16.563-23.868
			c3.345-25.02,24.772-44.399,50.697-44.399c4.71,0,8.533-3.823,8.533-8.533s-3.823-8.533-8.533-8.533
			c-34.748,0-63.454,26.112-67.678,59.733h-18.244c-4.224-33.621-32.93-59.733-67.678-59.733c-4.71,0-8.533,3.823-8.533,8.533
			s3.823,8.533,8.533,8.533c25.924,0,47.351,19.379,50.697,44.399c-9.651,3.669-16.563,12.945-16.563,23.868
			c0,6.665,2.62,12.689,6.81,17.246c-1.818,2.074-3.516,4.258-5.035,6.605l-27.375-27.383V68.269c0-4.71-3.823-8.533-8.533-8.533
			s-8.533,3.823-8.533,8.533v25.6c0,2.261,0.896,4.437,2.5,6.033l34.133,34.133c0.102,0.102,0.23,0.128,0.333,0.222
			c-1.792,6.135-2.833,12.629-2.833,19.345c0,5.222,0.64,10.266,1.724,15.104l-55.953-13.995l-23.791-39.637
			c-2.423-4.036-7.663-5.342-11.708-2.918c-4.036,2.423-5.35,7.663-2.918,11.708l25.6,42.667c1.161,1.937,3.046,3.336,5.24,3.883
			l55.893,13.978c-14.592,16.913-33.34,39.825-50.551,64.444l-91.52,33.28c-1.707,0.623-3.174,1.775-4.181,3.285l-51.2,76.8
			c-2.611,3.925-1.553,9.225,2.364,11.836c1.459,0.973,3.106,1.434,4.727,1.434c2.756,0,5.461-1.331,7.108-3.797l49.647-74.47
			l67.268-24.465c-14.549,23.501-26.146,47.232-30.097,67.669c-0.034,0.307-0.316,3.098-0.051,7.322
			c0.956,15.138,7.885,28.996,19.507,39.031c10.718,9.259,24.636,14.353,38.81,14.353c1.621,0,3.251-0.06,4.873-0.196
			c8.038-0.666,15.215-2.048,21.623-3.994c-3.277,8.926-5.282,17.143-6.409,23.825c-3.695,21.914-14.123,42.001-30.029,57.958
			c-0.614,0.572-3.311,2.884-5.888,5.094c-2.807,2.415-5.487,4.745-5.82,5.06c-3.302,3.268-3.345,8.542-0.137,11.913
			c1.664,1.749,3.908,2.628,6.161,2.628c2.091,0,4.181-0.751,5.828-2.253c0.529-0.495,2.765-2.406,5.086-4.403
			c3.123-2.68,6.374-5.504,6.716-5.854c18.56-18.62,30.626-41.89,34.91-67.302c1.937-11.452,6.562-27.887,17.527-44.518
			c7.569,22.434,19.098,43.366,34.287,61.594c1.621,1.946,4.019,3.072,6.554,3.072c2.534,0,4.932-1.126,6.554-3.072
			c15.189-18.227,26.718-39.159,34.287-61.594c10.965,16.631,15.59,33.067,17.528,44.51c4.284,25.421,16.35,48.691,34.884,67.285
			c0.367,0.375,3.618,3.2,6.741,5.879c2.287,1.963,4.489,3.857,5.06,4.378c1.647,1.562,3.763,2.347,5.879,2.347
			c2.202,0,4.403-0.845,6.076-2.534c3.311-3.354,3.277-8.764-0.077-12.075c-0.333-0.316-3.012-2.645-5.82-5.06
			c-2.577-2.21-5.274-4.523-5.743-4.958c-16.051-16.094-26.479-36.181-30.174-58.095c-1.126-6.69-3.132-14.899-6.417-23.825
			c6.417,1.946,13.594,3.328,21.632,3.994c1.621,0.137,3.251,0.196,4.872,0.196c14.174,0,28.092-5.103,38.81-14.353
			c11.622-10.035,18.551-23.893,19.507-39.04c0.265-4.207-0.017-6.989-0.162-8.004c-3.9-20.147-15.394-43.622-29.833-66.918
			l67.115,24.405l49.647,74.47c1.638,2.466,4.352,3.797,7.108,3.797c1.621,0,3.268-0.461,4.727-1.434
			C512.127,371.424,513.185,366.125,510.565,362.199z M242.337,211.108c4.361,1.417,8.926,2.227,13.662,2.227
			c4.736,0,9.301-0.811,13.662-2.227c0.41,8.883,1.126,18.27,2.048,27.827h-31.42C241.211,229.378,241.927,219.991,242.337,211.108z
			 M238.454,256.002l35.08-0.017c1.015,8.619,2.15,17.229,3.345,25.617h-41.762C236.313,273.222,237.447,264.621,238.454,256.002z
			 M232.575,298.669h46.848c1.425,9.182,2.867,17.809,4.215,25.6h-55.279C229.708,316.478,231.15,307.85,232.575,298.669z
			 M255.999,421.361c-8.482-11.546-15.454-24.115-20.864-37.359h41.728C271.453,397.246,264.481,409.815,255.999,421.361z
			 M282.785,367.174c-0.401-0.06-0.768-0.239-1.186-0.239h-51.2c-0.418,0-0.785,0.179-1.186,0.239
			c-2.022-6.835-3.652-13.815-4.83-20.898c0.29-1.544,0.597-3.2,0.922-4.941h61.389c0.324,1.741,0.631,3.396,0.922,4.941
			C286.437,353.359,284.807,360.339,282.785,367.174z"/>
	</g>
</g>
</svg>
